<svg xmlns="http://www.w3.org/2000/svg" width="333" height="317.37" viewBox="0 0 333 317.37">
  <g id="Group_3298" data-name="Group 3298" transform="translate(-260.248 -294.969)">
    <rect id="Rectangle_1370" data-name="Rectangle 1370" width="333" height="77.143" rx="38.571" transform="translate(260.248 495.061)" fill="#ededed"/>
    <path id="Rectangle_1371" data-name="Rectangle 1371" d="M34.831,0H288.7A34.831,34.831,0,0,1,323.53,34.831v0A34.831,34.831,0,0,1,288.7,69.661H34.831A34.831,34.831,0,0,1,0,34.831v0A34.831,34.831,0,0,1,34.831,0Z" transform="translate(269.719 367.296)" fill="#ededed"/>
    <rect id="Rectangle_1372" data-name="Rectangle 1372" width="206.525" height="39.112" rx="19.556" transform="translate(342.992 317.474)" fill="#ededed"/>
    <path id="Path_1640" data-name="Path 1640" d="M710.356,983.918c-.152.007-.307.007-.462.007H448.978c-.053,0-.106,0-.158,0a29.048,29.048,0,0,0,0-58.1c.053,0,.106,0,.158,0H709.895c.155,0-.152,0,0,.007a27.86,27.86,0,0,0-19.619,8.5,29.05,29.05,0,0,0,20.081,49.589Z" transform="translate(-146.129 -488.863)" fill="#ededed"/>
    <g id="Group_3274" data-name="Group 3274" transform="translate(305.07 335.41)">
      <path id="Path_1641" data-name="Path 1641" d="M608.425,672.019h-2.6a1.62,1.62,0,0,1,0-3.24h2.6a17.591,17.591,0,0,0,4.122-.488,1.62,1.62,0,0,1,.76,3.15A20.847,20.847,0,0,1,608.425,672.019Zm-11.541,0h-7.15a1.62,1.62,0,1,1,0-3.24h7.15a1.62,1.62,0,0,1,0,3.24Zm-16.087,0h-7.15a1.62,1.62,0,1,1,0-3.24h7.15a1.62,1.62,0,0,1,0,3.24Zm-16.087,0h-7.15a1.62,1.62,0,1,1,0-3.24h7.15a1.62,1.62,0,0,1,0,3.24Zm-16.087,0h-7.149a1.62,1.62,0,1,1,0-3.24h7.149a1.62,1.62,0,1,1,0,3.24Zm-16.087,0h-7.15a1.62,1.62,0,1,1,0-3.24h7.15a1.62,1.62,0,1,1,0,3.24Zm-16.086,0H509.3a1.62,1.62,0,1,1,0-3.24h7.15a1.62,1.62,0,1,1,0,3.24Zm-16.087,0h-7.15a1.62,1.62,0,0,1,0-3.24h7.15a1.62,1.62,0,1,1,0,3.24Zm-16.087,0h-4.122a21.008,21.008,0,0,1-3.267-.255,1.62,1.62,0,0,1,.506-3.2,17.738,17.738,0,0,0,2.761.216h4.122a1.62,1.62,0,0,1,0,3.24Zm-15.321-3.614a1.614,1.614,0,0,1-.947-.307,20.769,20.769,0,0,1-5.307-5.587,1.62,1.62,0,0,1,2.721-1.758,17.544,17.544,0,0,0,4.483,4.719,1.62,1.62,0,0,1-.95,2.933Zm151.86-.939a1.62,1.62,0,0,1-1.05-2.854,17.522,17.522,0,0,0,4.1-5.058,1.62,1.62,0,1,1,2.852,1.537,20.759,20.759,0,0,1-4.849,5.989A1.614,1.614,0,0,1,620.817,667.467Zm-159.7-12.561a1.62,1.62,0,0,1-1.609-1.45,21.175,21.175,0,0,1-.116-2.2V646.14a1.62,1.62,0,1,1,3.24,0v5.112a17.95,17.95,0,0,0,.1,1.863,1.62,1.62,0,0,1-1.441,1.781A1.7,1.7,0,0,1,461.114,654.905Zm166.45-1.519h-.045a1.619,1.619,0,0,1-1.575-1.664q.006-.235.006-.471v-6.635a1.62,1.62,0,0,1,3.24,0v6.635c0,.187,0,.374-.007.559A1.62,1.62,0,0,1,627.564,653.387ZM461.009,638.823a1.62,1.62,0,0,1-1.62-1.62v-7.149a1.62,1.62,0,1,1,3.24,0V637.2A1.62,1.62,0,0,1,461.009,638.823ZM627.57,637.3a1.62,1.62,0,0,1-1.62-1.62v-7.149a1.62,1.62,0,1,1,3.24,0v7.149A1.619,1.619,0,0,1,627.57,637.3ZM461.009,622.737a1.62,1.62,0,0,1-1.62-1.62v-7.15a1.62,1.62,0,0,1,3.24,0v7.15A1.62,1.62,0,0,1,461.009,622.737Zm166.561-1.523a1.62,1.62,0,0,1-1.62-1.62v-7.149a1.62,1.62,0,1,1,3.24,0v7.149A1.62,1.62,0,0,1,627.57,621.214ZM461.009,606.65a1.62,1.62,0,0,1-1.62-1.62v-7.15a1.62,1.62,0,1,1,3.24,0v7.15A1.62,1.62,0,0,1,461.009,606.65Zm166.561-1.523a1.62,1.62,0,0,1-1.62-1.62v-7.15a1.62,1.62,0,1,1,3.24,0v7.15A1.62,1.62,0,0,1,627.57,605.127ZM461.009,590.563a1.62,1.62,0,0,1-1.62-1.62v-7.15a1.62,1.62,0,1,1,3.24,0v7.15A1.62,1.62,0,0,1,461.009,590.563Zm166.561-1.523a1.62,1.62,0,0,1-1.62-1.62v-7.15a1.62,1.62,0,1,1,3.24,0v7.15A1.62,1.62,0,0,1,627.57,589.041ZM461.009,574.477a1.62,1.62,0,0,1-1.62-1.62v-7.15a1.62,1.62,0,1,1,3.24,0v7.15A1.62,1.62,0,0,1,461.009,574.477Zm166.561-1.523a1.62,1.62,0,0,1-1.62-1.62v-7.15a1.62,1.62,0,1,1,3.24,0v7.15A1.62,1.62,0,0,1,627.57,572.954ZM461.009,558.39a1.62,1.62,0,0,1-1.62-1.62v-7.149a1.62,1.62,0,1,1,3.24,0v7.149A1.62,1.62,0,0,1,461.009,558.39Zm166.561-1.523a1.62,1.62,0,0,1-1.62-1.62V548.1a1.62,1.62,0,1,1,3.24,0v7.15A1.62,1.62,0,0,1,627.57,556.868ZM461.009,542.3a1.62,1.62,0,0,1-1.62-1.62v-7.15a1.62,1.62,0,1,1,3.24,0v7.15A1.62,1.62,0,0,1,461.009,542.3Zm166.561-1.523a1.62,1.62,0,0,1-1.62-1.62v-7.15a1.62,1.62,0,1,1,3.24,0v7.15A1.62,1.62,0,0,1,627.57,540.781ZM461.009,526.217a1.62,1.62,0,0,1-1.62-1.62v-7.15a1.62,1.62,0,1,1,3.24,0v7.15A1.62,1.62,0,0,1,461.009,526.217Zm166.561-1.523a1.62,1.62,0,0,1-1.62-1.62v-7.209a1.62,1.62,0,0,1,3.24,0v7.209A1.62,1.62,0,0,1,627.57,524.695ZM461.009,510.131a1.62,1.62,0,0,1-1.62-1.62v-7.15a1.62,1.62,0,1,1,3.24,0v7.15A1.62,1.62,0,0,1,461.009,510.131Zm163.728-.956a1.617,1.617,0,0,1-1.288-.636,12.247,12.247,0,0,0-1.06-1.211l-3.765-3.765a1.62,1.62,0,0,1,2.291-2.291l3.765,3.765a15.43,15.43,0,0,1,1.343,1.534,1.62,1.62,0,0,1-1.285,2.6ZM613.45,497.718a1.615,1.615,0,0,1-1.145-.474l-5.055-5.055a1.62,1.62,0,1,1,2.291-2.291l5.055,5.055a1.62,1.62,0,0,1-1.145,2.765Zm-152.209-3.66a1.623,1.623,0,0,1-1.6-1.87,20.581,20.581,0,0,1,2.591-7.263,1.62,1.62,0,0,1,2.795,1.638,17.354,17.354,0,0,0-2.184,6.124A1.62,1.62,0,0,1,461.241,494.058Zm140.834-7.715a1.615,1.615,0,0,1-1.145-.474l-4.422-4.422c-.185-.185-.38-.367-.577-.541a1.62,1.62,0,1,1,2.137-2.435c.25.22.5.45.731.684l4.422,4.422a1.62,1.62,0,0,1-1.145,2.765Zm-132.329-5.381a1.62,1.62,0,0,1-.884-2.979,20.578,20.578,0,0,1,7.136-2.92,1.62,1.62,0,0,1,.645,3.175,17.352,17.352,0,0,0-6.017,2.463A1.612,1.612,0,0,1,469.746,480.962ZM588.9,477.921c-.039,0-.078,0-.117,0-.289-.021-.582-.031-.872-.031h-6.161a1.62,1.62,0,0,1,0-3.24h6.161c.367,0,.739.013,1.1.039a1.62,1.62,0,0,1-.115,3.236Zm-16.088-.035h-7.15a1.62,1.62,0,0,1,0-3.24h7.15a1.62,1.62,0,1,1,0,3.24Zm-16.086,0h-7.15a1.62,1.62,0,1,1,0-3.24h7.15a1.62,1.62,0,0,1,0,3.24Zm-16.087,0h-7.15a1.62,1.62,0,0,1,0-3.24h7.15a1.62,1.62,0,1,1,0,3.24Zm-16.087,0H517.4a1.62,1.62,0,1,1,0-3.24h7.15a1.62,1.62,0,1,1,0,3.24Zm-16.087,0h-7.15a1.62,1.62,0,1,1,0-3.24h7.15a1.62,1.62,0,1,1,0,3.24Zm-16.087,0h-7.15a1.62,1.62,0,1,1,0-3.24h7.15a1.62,1.62,0,1,1,0,3.24Z" transform="translate(-459.389 -474.646)" fill="#b2b2b2"/>
    </g>
    <g id="Group_3293" data-name="Group 3293" transform="translate(355.303 386.389)">
      <g id="Group_3288" data-name="Group 3288">
        <g id="Group_3276" data-name="Group 3276" transform="translate(114.899 123.337)">
          <g id="Group_3275" data-name="Group 3275">
            <path id="Path_1642" data-name="Path 1642" d="M1230.869,1282.229l-1.593,1.34-8.439,7.083-5.195-6.185-.762-.914-.767-.914-9.577-11.414-.767-.914-.771-.918-8.4-10.007-.771-.919-.767-.914c.329-.223.657-.451.986-.678q2.18-1.542,4.247-3.274t3.956-3.62c.286-.282.565-.569.839-.855l.775.923.767.918,8.4,10.007.767.914.771.919,9.577,11.414.763.914.767.91,3.855,4.593Z" transform="translate(-1193.062 -1249.124)" fill="#c4c4c4"/>
          </g>
        </g>
        <g id="Group_3278" data-name="Group 3278" transform="translate(131.986 145.678)">
          <g id="Group_3277" data-name="Group 3277">
            <path id="Path_1643" data-name="Path 1643" d="M1316.423,1424.807l-46.365-55.256a4.606,4.606,0,0,1,.568-6.489l16.2-13.6a4.607,4.607,0,0,1,6.49.568l46.365,55.256a10.783,10.783,0,0,1-1.329,15.192l-6.739,5.655A10.783,10.783,0,0,1,1316.423,1424.807Z" transform="translate(-1268.98 -1348.387)" fill="#b2b2b2"/>
          </g>
        </g>
        <g id="Group_3281" data-name="Group 3281">
          <g id="Group_3279" data-name="Group 3279" transform="translate(1.195 1.195)">
            <path id="Path_1644" data-name="Path 1644" d="M827.2,734.638a78.887,78.887,0,1,0-15.893,115.826c.329-.223.657-.451.982-.683s.649-.463.969-.7q2.149-1.574,4.222-3.307t3.986-3.586c.287-.274.573-.548.855-.834s.565-.56.843-.847A78.888,78.888,0,0,0,827.2,734.638Zm-100.48,2.979a62.3,62.3,0,0,1,85.717,90.111c-.27.291-.544.581-.826.868s-.552.573-.839.855q-1.877,1.877-3.956,3.619t-4.247,3.274c-.329.228-.657.455-.986.678s-.666.442-1,.661A62.31,62.31,0,0,1,726.72,737.617Z" transform="translate(-687.879 -706.454)" fill="#e6e6e6"/>
          </g>
          <g id="Group_3280" data-name="Group 3280">
            <path id="Path_1645" data-name="Path 1645" d="M839.217,757.683A80.127,80.127,0,1,0,755.678,861c2.364.211,4.727.312,7.078.312a79.807,79.807,0,0,0,45.209-14.047c.329-.223.653-.451.977-.687s.649-.459.969-.7q2.155-1.58,4.218-3.312T818.12,839q.436-.411.86-.834c.282-.278.565-.56.843-.847a80.189,80.189,0,0,0,19.394-79.633ZM840.059,788a77.136,77.136,0,0,1-21.77,47.485c-.278.282-.56.565-.847.843s-.569.56-.855.834q-1.921,1.858-3.986,3.585t-4.226,3.3c-.32.236-.64.468-.969.7s-.653.459-.982.683a77.7,77.7,0,1,1-43.9-141.906q3.432,0,6.906.3A77.7,77.7,0,0,1,840.059,788Z" transform="translate(-682.572 -701.145)" fill="#b2b2b2"/>
          </g>
        </g>
        <g id="Group_3285" data-name="Group 3285" transform="translate(15.396 15.395)">
          <g id="Group_3282" data-name="Group 3282" transform="translate(1.194 1.196)">
            <path id="Path_1646" data-name="Path 1646" d="M868.414,797.537a63.494,63.494,0,1,0-14.056,94.072c.337-.219.666-.443,1-.666s.657-.447.982-.683q2.174-1.529,4.251-3.269c1.382-1.159,2.7-2.368,3.961-3.615.282-.282.565-.569.843-.851s.552-.577.826-.868A63.508,63.508,0,0,0,868.414,797.537Zm-2.97,83.2c-.27.291-.544.581-.826.868s-.552.573-.839.855q-1.877,1.877-3.956,3.619t-4.247,3.274c-.329.228-.657.455-.986.678s-.666.442-1,.661a62.337,62.337,0,1,1,11.852-9.956Z" transform="translate(-756.281 -774.857)" fill="#fcfcfc"/>
          </g>
          <g id="Group_3283" data-name="Group 3283">
            <path id="Path_1647" data-name="Path 1647" d="M865.218,792.657a64.684,64.684,0,1,0-55.191,106.013q2.889.253,5.751.253a64.046,64.046,0,0,0,35.245-10.512c.333-.219.666-.438.994-.666s.657-.451.982-.683q2.18-1.542,4.247-3.278t3.965-3.611c.282-.278.565-.565.838-.847s.56-.577.83-.864a64.7,64.7,0,0,0,2.338-85.805ZM810.237,896.3a62.3,62.3,0,1,1,51.1-19.685c-.27.291-.544.581-.826.868s-.552.573-.839.855q-1.877,1.877-3.956,3.619t-4.247,3.274c-.329.228-.657.455-.986.678s-.666.442-1,.661A61.837,61.837,0,0,1,810.237,896.3Z" transform="translate(-750.977 -769.543)" fill="#b2b2b2"/>
          </g>
          <g id="Group_3284" data-name="Group 3284" transform="translate(2.412 2.414)">
            <path id="Path_1648" data-name="Path 1648" d="M869.639,884.929c-.27.291-.544.581-.826.868s-.552.573-.839.855q-1.877,1.877-3.956,3.62t-4.247,3.274c-.329.228-.657.455-.986.678s-.666.442-1,.662a62.337,62.337,0,1,1,11.852-9.956Z" transform="translate(-761.695 -780.269)" fill="#fff"/>
          </g>
        </g>
        <g id="Group_3287" data-name="Group 3287" transform="translate(150.623 154.359)">
          <g id="Group_3286" data-name="Group 3286">
            <path id="Path_1649" data-name="Path 1649" d="M1391.63,1434.739a2.079,2.079,0,0,1-1.576-.72L1352.29,1390.4a2.084,2.084,0,0,1,3.151-2.729l37.764,43.616a2.084,2.084,0,0,1-1.574,3.448Z" transform="translate(-1351.781 -1386.956)" fill="#fff"/>
          </g>
        </g>
      </g>
      <g id="Group_3290" data-name="Group 3290" transform="translate(21.433 5.939)">
        <g id="Group_3289" data-name="Group 3289">
          <path id="Path_1650" data-name="Path 1650" d="M779.321,758.41a1.523,1.523,0,0,1-1.2-2.462,74.156,74.156,0,0,1,85.889-23.071,1.523,1.523,0,0,1-1.132,2.828,71.434,71.434,0,0,0-82.36,22.122A1.52,1.52,0,0,1,779.321,758.41Z" transform="translate(-777.799 -727.531)" fill="#fff"/>
        </g>
      </g>
      <g id="Group_3292" data-name="Group 3292" transform="translate(11.178 40.437)">
        <g id="Group_3291" data-name="Group 3291">
          <path id="Path_1651" data-name="Path 1651" d="M733.76,895.016a1.524,1.524,0,0,1-1.414-2.089,74.844,74.844,0,0,1,5.732-11.4,1.523,1.523,0,1,1,2.594,1.6,71.82,71.82,0,0,0-5.5,10.933A1.523,1.523,0,0,1,733.76,895.016Z" transform="translate(-732.237 -880.804)" fill="#fff"/>
        </g>
      </g>
    </g>
    <g id="Group_3294" data-name="Group 3294" transform="translate(305.591 294.969)">
      <path id="Path_1652" data-name="Path 1652" d="M463.324,324.15a1.62,1.62,0,0,1-1.62-1.62V296.589a1.62,1.62,0,0,1,3.24,0V322.53A1.62,1.62,0,0,1,463.324,324.15Z" transform="translate(-461.704 -294.969)" fill="#b2b2b2"/>
    </g>
    <g id="Group_3295" data-name="Group 3295" transform="translate(276.055 307.203)">
      <path id="Path_1653" data-name="Path 1653" d="M350.441,370.907a1.615,1.615,0,0,1-1.145-.474L330.952,352.09a1.62,1.62,0,0,1,2.291-2.291l18.343,18.343a1.62,1.62,0,0,1-1.145,2.765Z" transform="translate(-330.478 -349.325)" fill="#b2b2b2"/>
    </g>
    <g id="Group_3296" data-name="Group 3296" transform="translate(263.821 336.739)">
      <path id="Path_1654" data-name="Path 1654" d="M303.683,483.789H277.742a1.62,1.62,0,1,1,0-3.24h25.941a1.62,1.62,0,1,1,0,3.24Z" transform="translate(-276.122 -480.55)" fill="#b2b2b2"/>
    </g>
    <g id="Group_3297" data-name="Group 3297" transform="translate(415.093 429.34)">
      <path id="Path_1655" data-name="Path 1655" d="M969.089,944.221q-4.4,0-5.01-5.828l-.613-9.2a5.882,5.882,0,0,1,1.176-4.448,7.98,7.98,0,0,1,4.141-2.3,14.359,14.359,0,0,0,6.953-3.63,9.018,9.018,0,0,0,2.454-6.595,10.086,10.086,0,0,0-2.4-7.106,8.787,8.787,0,0,0-6.8-2.607q-5.521,0-8.077,4.192a11.37,11.37,0,0,1-3.477,3.681,6.47,6.47,0,0,1-4.09.409,6.777,6.777,0,0,1-4.345-2.4q-1.483-1.891-.153-4.652a20.264,20.264,0,0,1,7.924-8.589,23.233,23.233,0,0,1,12.218-3.17,24.953,24.953,0,0,1,11.2,2.4,18.128,18.128,0,0,1,7.617,6.953,20.6,20.6,0,0,1,2.76,10.889q0,7.261-4.447,11.758a24.544,24.544,0,0,1-11.809,6.339l-.409,8.077Q973.382,944.221,969.089,944.221Zm-.1,21.982a7.559,7.559,0,0,1-5.47-2.249,7.3,7.3,0,0,1-2.3-5.419,7.423,7.423,0,0,1,2.3-5.521,7.56,7.56,0,0,1,5.47-2.249,7.682,7.682,0,0,1,5.572,2.249,7.423,7.423,0,0,1,2.3,5.521,7.3,7.3,0,0,1-2.3,5.419A7.681,7.681,0,0,1,968.987,966.2Z" transform="translate(-948.216 -891.975)" fill="#b2b2b2"/>
    </g>
  </g>
</svg>
