<svg xmlns="http://www.w3.org/2000/svg" width="21" height="21" viewBox="0 0 21 21">
  <g id="Group_1989" data-name="Group 1989" transform="translate(-1522 -1749)">
    <path id="chat" d="M17.227,1H5.773A4.778,4.778,0,0,0,1,5.773v7.636a4.781,4.781,0,0,0,3.818,4.677v2.959a.955.955,0,0,0,1.484.794l5.484-3.658h5.441A4.778,4.778,0,0,0,22,13.409V5.773A4.778,4.778,0,0,0,17.227,1ZM15.318,12.454H7.682a.955.955,0,0,1,0-1.909h7.636a.955.955,0,0,1,0,1.909Zm1.909-3.818H5.773a.955.955,0,0,1,0-1.909H17.227a.955.955,0,0,1,0,1.909Z" transform="translate(1521 1748)" fill="#312c1e"/>
  </g>
</svg>
