<svg xmlns="http://www.w3.org/2000/svg" width="17.799" height="17.799" viewBox="0 0 17.799 17.799">
  <path id="doctor-bag" d="M18.821,6.955H16.843V5.966A2.966,2.966,0,0,0,13.877,3H9.922A2.966,2.966,0,0,0,6.955,5.966v.989H4.978A1.984,1.984,0,0,0,3,8.933v9.888A1.984,1.984,0,0,0,4.978,20.8H18.821A1.984,1.984,0,0,0,20.8,18.821V8.933a1.984,1.984,0,0,0-1.978-1.978ZM8.933,5.966a.989.989,0,0,1,.989-.989h3.955a.989.989,0,0,1,.989.989v.989H8.933Zm5.933,8.9H12.888v1.978H10.91V14.866H8.933V12.888H10.91V10.91h1.978v1.978h1.978Z" transform="translate(-3 -3)" fill="#2b5842"/>
</svg>
