<svg xmlns="http://www.w3.org/2000/svg" width="20.292" height="15.198" viewBox="0 0 20.292 15.198">
  <g id="email" transform="translate(0 -64.266)">
    <path id="Path_235" data-name="Path 235" d="M11.842,177.041a3.052,3.052,0,0,1-3.392,0L.135,171.5c-.046-.031-.091-.063-.135-.1v9.084a1.867,1.867,0,0,0,1.868,1.868H18.424a1.867,1.867,0,0,0,1.868-1.868V171.4c-.044.033-.089.065-.135.1Z" transform="translate(0 -102.89)" fill="#312c1e"/>
    <path id="Path_236" data-name="Path 236" d="M.795,67.619,9.11,73.162a1.863,1.863,0,0,0,2.073,0L19.5,67.619a1.78,1.78,0,0,0,.795-1.485,1.869,1.869,0,0,0-1.867-1.867H1.867A1.87,1.87,0,0,0,0,66.134a1.78,1.78,0,0,0,.795,1.484Z" transform="translate(0 0)" fill="#312c1e"/>
  </g>
</svg>
