<svg xmlns="http://www.w3.org/2000/svg" width="19.282" height="17.799" viewBox="0 0 19.282 17.799">
  <path id="event" d="M6,11.933V10.82A3.341,3.341,0,0,1,9.337,7.483H10.45V8.6a1.483,1.483,0,0,0,2.966,0V7.483h4.45V8.6a1.483,1.483,0,0,0,2.966,0V7.483h1.112a3.341,3.341,0,0,1,3.337,3.337v1.112ZM11.191,8.6a.742.742,0,0,0,1.483,0V6.742a.742.742,0,0,0-1.483,0Zm7.416-1.854V8.6a.742.742,0,0,0,1.483,0V6.742a.742.742,0,0,0-1.483,0Zm6.674,5.933v7.787A3.341,3.341,0,0,1,21.945,23.8H9.337A3.341,3.341,0,0,1,6,20.461V12.674ZM18.35,16.868H16.819l-.474-1.456a.742.742,0,0,0-1.409,0l-.473,1.456H12.931a.742.742,0,0,0-.436,1.342l1.239.9-.473,1.456a.742.742,0,0,0,1.141.829l1.238-.9,1.238.9a.742.742,0,0,0,1.141-.829l-.473-1.456,1.239-.9a.742.742,0,0,0-.436-1.342Z" transform="translate(-6 -6)" fill="#fff"/>
</svg>
