<svg id="XMLID_834_" xmlns="http://www.w3.org/2000/svg" width="17.886" height="35.408" viewBox="0 0 17.886 35.408">
  <path id="XMLID_835_" d="M77.274,18.858h3.881V34.837a.571.571,0,0,0,.571.571h6.581a.571.571,0,0,0,.571-.571v-15.9H93.34a.571.571,0,0,0,.567-.506l.678-5.882a.571.571,0,0,0-.567-.636H88.879V8.221c0-1.112.6-1.675,1.779-1.675h3.36a.571.571,0,0,0,.571-.571V.575A.571.571,0,0,0,94.018,0H89.387c-.033,0-.105,0-.212,0a8.874,8.874,0,0,0-5.8,2.187A6.085,6.085,0,0,0,81.349,7.6v4.312H77.274a.571.571,0,0,0-.571.571v5.807A.571.571,0,0,0,77.274,18.858Z" transform="translate(-76.703)" fill="#fff"/>
</svg>
