<svg id="Group_117" data-name="Group 117" xmlns="http://www.w3.org/2000/svg" xmlns:xlink="http://www.w3.org/1999/xlink" width="273.041" height="69" viewBox="0 0 273.041 69">
    <defs>
        <clipPath id="clip-path">
            <rect id="Rectangle_6" data-name="Rectangle 6" width="273.041" height="69" fill="#FABB54"/>
        </clipPath>
    </defs>
    <g id="Group_3" data-name="Group 3" clip-path="url(#clip-path)">
        <path id="Path_18" data-name="Path 18" d="M839.02,60.062a22.943,22.943,0,0,1,.138-5.922c.547-4.7,1.86-9.338,1.909-14.025a7.978,7.978,0,0,0-.312-2.334l.051.141-2.259-5.364a91.515,91.515,0,0,0-5-10.615,48.79,48.79,0,0,0-3.228-4.862,39.869,39.869,0,0,0-3.407-3.4c1.43-1.9,2.635-4.29,2.447-6.71a20.96,20.96,0,0,0-.895-4.287c-.04-.1-.094-.184-.09-.154s.021.075.186.219a1.268,1.268,0,0,0,.951.254,1.213,1.213,0,0,0,.654-.3c.046-.044.045-.042.039-.022a11.593,11.593,0,0,0-.435,1.5,8.947,8.947,0,0,1-2.484,4.845,5.84,5.84,0,0,1-5.371,1.331c-.258-.051-.746-.142-1-.2-3.178-.656-6.618-1.035-9.718.062-2.72.953-5,3.016-7.27,4.852l-.09.073-.045.037-.023.018c-.011.01.01-.01.021-.022-.587.535-1.2,1.044-1.806,1.539-3.636,2.866-10.245,7.514-15.043,6.091l.075-.376c2.625.056,4.906-1.486,6.974-2.932a54.9,54.9,0,0,0,7.374-6.718c.116-.124.475-.464.6-.593,2.279-2.256,4.679-4.569,7.805-5.771,4.127-1.7,9.069-.933,13.047.215,1.418.527,2.534-.384,3.162-1.7.528-1.061.721-2.176,1.256-3.252A3.443,3.443,0,0,1,828.251.335a1.8,1.8,0,0,1,2.166.054c1.3,1.079,1.142,4.151,1.2,5.717.119,2.966-1.46,5.69-3.26,7.891l-.063-.9c1,1.058,1.967,2.143,2.919,3.233l3.517,4.842c3.554,4.888,7.118,9.893,9.321,15.57,1.085,3.979-.29,8.48-1.355,12.26-1.075,3.719-2.561,7.261-3.288,11.055h-.383" transform="translate(-571.402 0)" fill="#FABB54"/>
        <path id="Path_19" data-name="Path 19" d="M749.081,138.486c.3,3.027.737,6.755,2.832,8.952a2.758,2.758,0,0,0,2.008,1c.159-.032.164-.057.2-.086.006,0,.044-.056.049-.06l.081-.111a26.122,26.122,0,0,1,2.905-3.655l-.15.24a16.183,16.183,0,0,1,3.675-3.114,12.1,12.1,0,0,1,6.41-2.065c.378.018.758.042,1.138.064l1.126.179a17.933,17.933,0,0,1,2.178.653,18.173,18.173,0,0,0,7.8,1.029,22.59,22.59,0,0,0,8.364-2.353c.706-.326,2.786-1.548,3.467-1.921.162,1.274.52,3.655.6,4.907a31.144,31.144,0,0,1-.121,6.219c-.949,1.844-2,3.933-2.931,5.816-.981,1.9-1.91,3.8-2.977,5.669l-.367-.112a55.169,55.169,0,0,1,2.909-12.6l-.151.651a57.989,57.989,0,0,0-.645-6.977l3.068,1.507a22.1,22.1,0,0,1-11.194,2.576,16.6,16.6,0,0,1-7.644-2.279c-.521-.3-1.276-.785-1.807-1.057l-.915-.384a6.77,6.77,0,0,0-3.884-.186c-2.649.669-4.435,2.964-5.757,5.231l-.261.258a1.355,1.355,0,0,0,.431-.547c-.713,1.182-1.349,2.4-2.057,3.6-.161.262-.34.559-.523.827a3.637,3.637,0,0,1-2.7,1.5c-2.5.167-4.544-1.654-5.544-3.752a12.364,12.364,0,0,1,.007-9.662l.379.055" transform="translate(-542.921 -99.648)" fill="#FABB54"/>
        <path id="Path_20" data-name="Path 20" d="M34.807,58.591c.329,0,.494.148.494.444v5.974a.437.437,0,0,1-.494.494,7.14,7.14,0,0,1-5.727-2.419,14.42,14.42,0,0,1-4.32,9.578q-3.728,3.456-10.393,3.456-6.961,0-10.664-3.283T0,63.034a37.908,37.908,0,0,1,2.172-11.6l5.283,1.432a28,28,0,0,0-1.481,8.295q.049,4,2.2,6.023t6.246,2.024q8.244,0,8.245-9.233V29.955l6.567-.839v25.13a4.281,4.281,0,0,0,1.777,3.185,6.244,6.244,0,0,0,3.8,1.16" transform="translate(0 -21.141)" fill="#FABB54"/>
        <path id="Path_21" data-name="Path 21" d="M125.773,96.13a.437.437,0,0,1-.494-.494l.05-5.974c0-.3.165-.444.494-.444q4.838,0,4.839-5.381l-.05-11.751,6.567-.79V86.058q0,10.072-11.405,10.072m5.777,12.343-4.789-4.69,4.69-4.74,4.839,4.74Z" transform="translate(-90.966 -51.769)" fill="#FABB54"/>
        <path id="Path_22" data-name="Path 22" d="M183.135,75.6h6.221l-.79,3.752H177.013V75.6h2.321a5.225,5.225,0,0,1-.642-2.617,4.134,4.134,0,0,1,1.333-3.135,4.761,4.761,0,0,1,3.406-1.259,10.666,10.666,0,0,1,4.246.938v3.308a9.271,9.271,0,0,0-3.16-.741,2.285,2.285,0,0,0-1.506.469,1.5,1.5,0,0,0-.568,1.209,2.575,2.575,0,0,0,.691,1.827m4.394-45.224V66.419h-6.567v-35.2Z" transform="translate(-128.531 -22.058)" fill="#FABB54"/>
        <path id="Path_23" data-name="Path 23" d="M300.753,55.057c.328,0,.494.148.494.444v5.974a.436.436,0,0,1-.494.494q-4.592,0-7.011-1.925a18.7,18.7,0,0,1-8.492,2.37,11.156,11.156,0,0,1-8.492-3.505,12.237,12.237,0,0,1-3.308-8.739,13.047,13.047,0,0,1,3.333-9.01,10.859,10.859,0,0,1,8.467-3.728,16.8,16.8,0,0,1,5.529,1.037l-.049-2.814,6.517-.79.049,16.342a4.258,4.258,0,0,0,.84,2.938,3.389,3.389,0,0,0,2.617.913M285.447,29.779l-3.9,3.851-4.789-4.69,4.69-4.69,4,3.851,3.95-3.851,4.789,4.69-4.74,4.69Zm-.2,26.118a14.076,14.076,0,0,0,5.727-1.086,24.465,24.465,0,0,1-.2-2.765V44.936a16.826,16.826,0,0,0-5.233-1.086,5.706,5.706,0,0,0-4.345,1.777,6.155,6.155,0,0,0-1.679,4.394,5.748,5.748,0,0,0,1.6,4.172,5.653,5.653,0,0,0,4.123,1.7" transform="translate(-198.555 -17.607)" fill="#FABB54"/>
        <path id="Path_24" data-name="Path 24" d="M418.086,86.863c.328,0,.494.148.494.444v5.974a.437.437,0,0,1-.494.494,10.487,10.487,0,0,1-7.8-3.357q-2.963,3.358-9.233,3.357H371.825a.436.436,0,0,1-.494-.494V87.307a.483.483,0,0,1,.494-.444h4.246l-.05-17.132,6.517-.79v4.888a104.506,104.506,0,0,1,11.183-4.518,25.852,25.852,0,0,1,7.727-1.259,10.63,10.63,0,0,1,11.109,11.257l-.05,4.394q0,.445-.1,1.432a9.946,9.946,0,0,0,5.678,1.728m-12.1-4.69V80a4.75,4.75,0,0,0-1.679-3.8,6.465,6.465,0,0,0-4.345-1.432,24.481,24.481,0,0,0-6.1.765q-2.988.766-11.331,3.678v7.652H401.1a4.987,4.987,0,0,0,3.6-1.234,4.568,4.568,0,0,0,1.284-3.456" transform="translate(-269.627 -49.413)" fill="#FABB54"/>
        <path id="Path_25" data-name="Path 25" d="M557.564,69.716c.329,0,.494.148.494.444v5.974a.437.437,0,0,1-.494.494,10.66,10.66,0,0,1-7.652-3.209q-2.814,3.21-9.183,3.209a.436.436,0,0,1-.494-.494l.049-5.974c0-.3.165-.444.494-.444q4.838,0,4.838-5.381l-.049-6.616,6.566-.839v9.677q0,.544-.1,1.531a10.131,10.131,0,0,0,5.53,1.629m-3.9-20.588-4.74,4.74-4.789-4.74,4.69-4.69Z" transform="translate(-392.27 -32.267)" fill="#FABB54"/>
        <path id="Path_26" data-name="Path 26" d="M615.624,70.937a11.576,11.576,0,0,1,8.467,3.332,11.264,11.264,0,0,1,3.382,8.368A12.666,12.666,0,0,1,623.7,92.29q-3.777,3.58-10.294,3.579H602.195a.437.437,0,0,1-.494-.494V89.4c0-.3.165-.444.494-.444h3.357a14.866,14.866,0,0,1-1.679-6.32,11.33,11.33,0,0,1,3.308-8.442,11.525,11.525,0,0,1,8.443-3.258M613.55,88.958a8.04,8.04,0,0,0,5.381-1.679,5.708,5.708,0,0,0,1.975-4.592,5.321,5.321,0,0,0-1.555-3.925,5.545,5.545,0,0,0-7.826.124,5.545,5.545,0,0,0-1.629,4,12.794,12.794,0,0,0,1.777,6.073Z" transform="translate(-436.901 -51.508)" fill="#FABB54"/>
        <path id="Path_27" data-name="Path 27" d="M287.766,204.072l-1.812-1.7,1.812-1.7,1.739,1.7Zm1.245,10.451h-2.562v-9.152h2.562Z" transform="translate(-207.634 -145.707)" fill="#FABB54"/>
        <path id="Path_28" data-name="Path 28" d="M325.977,206.5a3.72,3.72,0,0,1,2.974,1.29,5.986,5.986,0,0,1,0,6.937,3.721,3.721,0,0,1-2.974,1.291,3.334,3.334,0,0,1-2.91-1.519l-.238,1.336H320.5V202.783l2.563-.311v5.546a3.305,3.305,0,0,1,2.91-1.519m-.861,7.6a2.025,2.025,0,0,0,1.712-.778,3.861,3.861,0,0,0,0-4.118,2.025,2.025,0,0,0-1.712-.778,2.756,2.756,0,0,0-2.05.915v3.826a2.733,2.733,0,0,0,2.05.933" transform="translate(-232.721 -147.017)" fill="#FABB54"/>
        <path id="Path_29" data-name="Path 29" d="M382.715,206.5a3.72,3.72,0,0,1,2.974,1.29,5.986,5.986,0,0,1,0,6.937,3.721,3.721,0,0,1-2.974,1.291,3.335,3.335,0,0,1-2.91-1.519l-.238,1.336h-2.325V202.783l2.562-.311v5.546a3.306,3.306,0,0,1,2.91-1.519m-.86,7.6a2.026,2.026,0,0,0,1.712-.778,3.861,3.861,0,0,0,0-4.118,2.026,2.026,0,0,0-1.712-.778,2.757,2.757,0,0,0-2.05.915v3.826a2.734,2.734,0,0,0,2.05.933" transform="translate(-273.919 -147.017)" fill="#FABB54"/>
        <path id="Path_30" data-name="Path 30" d="M433.988,204.072l-1.812-1.7,1.812-1.7,1.739,1.7Zm1.245,10.451H432.67v-9.152h2.563Z" transform="translate(-313.807 -145.707)" fill="#FABB54"/>
        <path id="Path_31" data-name="Path 31" d="M466.726,215.834V202.783l2.563-.311v13.362Z" transform="translate(-338.894 -147.017)" fill="#FABB54"/>
        <rect id="Rectangle_5" data-name="Rectangle 5" width="2.197" height="2.178" transform="translate(136.544 66.639)" fill="#FABB54"/>
        <path id="Path_32" data-name="Path 32" d="M532.744,224.771a6.346,6.346,0,0,0,2.745-.7l.421,1.83a7.193,7.193,0,0,1-3.423.787,5.074,5.074,0,0,1-3.679-1.291,5.17,5.17,0,0,1,0-6.937,5.072,5.072,0,0,1,3.679-1.29,7.2,7.2,0,0,1,3.423.787l-.421,1.83a6.346,6.346,0,0,0-2.745-.7,2.607,2.607,0,0,0-1.913.732,3.36,3.36,0,0,0,0,4.21,2.605,2.605,0,0,0,1.913.732" transform="translate(-383.003 -157.693)" fill="#FABB54"/>
        <path id="Path_33" data-name="Path 33" d="M583,217.175a4.947,4.947,0,0,1,3.716,1.372,4.959,4.959,0,0,1,0,6.772,5.753,5.753,0,0,1-7.45.009,4.982,4.982,0,0,1,0-6.791A4.989,4.989,0,0,1,583,217.175m-.018,7.6a2.127,2.127,0,0,0,1.821-.824,3.612,3.612,0,0,0,0-4.027,2.435,2.435,0,0,0-3.651,0,3.657,3.657,0,0,0,0,4.027,2.121,2.121,0,0,0,1.83.824" transform="translate(-419.639 -157.693)" fill="#FABB54"/>
        <path id="Path_34" data-name="Path 34" d="M648.176,217.175a3.124,3.124,0,0,1,2.38.869,3.581,3.581,0,0,1,.824,2.553v5.912h-2.562v-5.857q0-1.556-1.666-1.556a2.468,2.468,0,0,0-1.848.86q.036.4.037.64v5.912h-2.563v-5.857q0-1.556-1.665-1.556a2.433,2.433,0,0,0-1.812.86v6.553h-2.563v-9.152h2.325l.22,1.318a3.239,3.239,0,0,1,2.855-1.5,2.807,2.807,0,0,1,2.947,1.812,3.385,3.385,0,0,1,3.093-1.812" transform="translate(-462.34 -157.693)" fill="#FABB54"/>
    </g>
</svg>
