<svg xmlns="http://www.w3.org/2000/svg" width="50" height="50" viewBox="0 0 50 50">
  <path id="Icon_awesome-arrow-circle-left" data-name="Icon awesome-arrow-circle-left" d="M25.563,50.563a25,25,0,1,1,25-25A25,25,0,0,1,25.563,50.563Zm2.913-14.476-7.611-7.3H39.272a2.414,2.414,0,0,0,2.419-2.419V24.756a2.414,2.414,0,0,0-2.419-2.419H20.865l7.611-7.3a2.422,2.422,0,0,0,.04-3.458l-1.109-1.1a2.409,2.409,0,0,0-3.417,0L10.613,23.849a2.409,2.409,0,0,0,0,3.417L23.99,40.643a2.409,2.409,0,0,0,3.417,0l1.109-1.1A2.422,2.422,0,0,0,28.476,36.087Z" transform="translate(50.563 50.563) rotate(180)" fill="#fff"/>
</svg>
