<svg id="instagram" xmlns="http://www.w3.org/2000/svg" width="35.408" height="35.408" viewBox="0 0 35.408 35.408">
  <path id="Path_96" data-name="Path 96" d="M27.324,20.83a6.5,6.5,0,1,0,6.5,6.494A6.5,6.5,0,0,0,27.324,20.83Z" transform="translate(-9.62 -9.62)" fill="#fff"/>
  <path id="Path_97" data-name="Path 97" d="M32.5,5H12.9A7.915,7.915,0,0,0,5,12.9V32.5a7.911,7.911,0,0,0,7.9,7.9H32.5a7.906,7.906,0,0,0,7.9-7.9V12.9A7.911,7.911,0,0,0,32.5,5ZM22.7,34.176A11.469,11.469,0,1,1,34.176,22.7,11.488,11.488,0,0,1,22.7,34.176ZM34.417,13.321A2.425,2.425,0,1,1,36.846,10.9,2.427,2.427,0,0,1,34.417,13.321Z" transform="translate(-5 -5)" fill="#fff"/>
</svg>
