<svg xmlns="http://www.w3.org/2000/svg" width="58.944" height="55.011" viewBox="0 0 58.944 55.011">
  <g id="Group_46" data-name="Group 46" transform="translate(0)">
    <circle id="Ellipse_6" data-name="Ellipse 6" cx="22.416" cy="22.416" r="22.416" transform="translate(14.112 10.179)" fill="#aaa" opacity="0.29"/>
    <g id="cardiogram">
      <path id="Path_77" data-name="Path 77" d="M26,29.324C14.661,19.4.24,28.12,0,39.937a15.343,15.343,0,0,0,2.539,8.649H13.758l1.995-3.325a1.524,1.524,0,0,1,2.593-.034l4.209,6.614,6.135-12.952a1.526,1.526,0,0,1,2.72-.07l5.259,9.767H49.465C58.943,33.773,40.211,16.9,26,29.324Z" transform="translate(0 -25.006)" fill="#2b5842"/>
      <path id="Path_78" data-name="Path 78" d="M78.21,209.178l-4.262-7.915-6.027,12.723a1.525,1.525,0,0,1-2.664.166l-4.367-6.862-1.17,1.95a1.524,1.524,0,0,1-1.307.74H48.746c.3.317-1.312-1.295,19.974,19.882a1.524,1.524,0,0,0,2.15,0C91.83,209.01,90.543,210.3,90.845,209.979H79.552A1.524,1.524,0,0,1,78.21,209.178Z" transform="translate(-43.792 -183.351)" fill="#2b5842"/>
    </g>
  </g>
</svg>
