<svg xmlns="http://www.w3.org/2000/svg" width="19.833" height="17.799" viewBox="0 0 19.833 17.799">
  <path id="Path_178" data-name="Path 178" d="M38.39,25.933c2.66-2.5,5.963-5.609,6.417-8.375a6.035,6.035,0,0,0-.925-4.791A5.961,5.961,0,0,0,39.5,10.612a5.385,5.385,0,0,0-.544-.028A6.372,6.372,0,0,0,35.011,12a6.372,6.372,0,0,0-3.948-1.42,5.389,5.389,0,0,0-.544.028,5.959,5.959,0,0,0-4.378,2.156,6.032,6.032,0,0,0-.925,4.791c.454,2.765,3.756,5.872,6.416,8.375,0,0,1.327,1.331,1.726,1.673a2.8,2.8,0,0,0,1.654.776,2.8,2.8,0,0,0,1.654-.776C37.064,27.265,38.39,25.933,38.39,25.933Zm-6.757-12.05a2.922,2.922,0,0,0-3.074,2.734.828.828,0,1,1-1.657,0,4.575,4.575,0,0,1,4.73-4.391.828.828,0,1,1,0,1.657Z" transform="translate(-25.094 -10.584)"/>
</svg>
