<svg xmlns="http://www.w3.org/2000/svg" width="21.706" height="21" viewBox="0 0 21.706 21">
  <g id="Group_1987" data-name="Group 1987" transform="translate(-1378 -1749)">
    <g id="like" transform="translate(1378 1749)">
      <path id="Path_168" data-name="Path 168" d="M2.333,128.453A2.336,2.336,0,0,0,0,130.786v9.333a2.333,2.333,0,1,0,4.667,0v-9.333A2.336,2.336,0,0,0,2.333,128.453Zm0,0" transform="translate(0 -121.453)" fill="#312c1e"/>
      <path id="Path_169" data-name="Path 169" d="M121.863,8.5a2.908,2.908,0,0,0-2.237-1.046h-3.434a7.139,7.139,0,0,0-.718-5.7,2.924,2.924,0,0,0-2.39-1.3c-1.361,0-1.361,1.261-1.361,2.182,0,1.815-.389,4.818-4.613,6a.592.592,0,0,0-.442.566V18.54a2.917,2.917,0,0,0,2.913,2.913h8.56a2.912,2.912,0,0,0,2.866-2.392l1.487-8.175a2.908,2.908,0,0,0-.63-2.388Zm0,0" transform="translate(-100.834 -0.453)" fill="#312c1e"/>
    </g>
  </g>
</svg>
