<svg id="XMLID_801_" xmlns="http://www.w3.org/2000/svg" width="35.486" height="35.408" viewBox="0 0 35.486 35.408">
  <path id="XMLID_802_" d="M12.623,99.73H5.5a.572.572,0,0,0-.572.572v22.886a.572.572,0,0,0,.572.572h7.124a.572.572,0,0,0,.572-.572V100.3A.572.572,0,0,0,12.623,99.73Z" transform="translate(-4.363 -88.353)" fill="#fff"/>
  <path id="XMLID_803_" d="M4.7.341a4.7,4.7,0,1,0,4.7,4.7A4.7,4.7,0,0,0,4.7.341Z" transform="translate(0 -0.341)" fill="#fff"/>
  <path id="XMLID_804_" d="M120.4,94.761a8.367,8.367,0,0,0-6.259,2.628V95.9a.572.572,0,0,0-.572-.572h-6.822a.572.572,0,0,0-.572.572v22.886a.572.572,0,0,0,.572.572h7.108a.572.572,0,0,0,.572-.572V107.465c0-3.816,1.036-5.3,3.7-5.3,2.9,0,3.127,2.383,3.127,5.5v11.127a.572.572,0,0,0,.572.572h7.111a.572.572,0,0,0,.572-.572V106.235C129.508,100.561,128.426,94.761,120.4,94.761Z" transform="translate(-94.022 -83.953)" fill="#fff"/>
</svg>
