<svg xmlns="http://www.w3.org/2000/svg" width="16.926" height="22.567" viewBox="0 0 16.926 22.567">
  <path id="Path_166" data-name="Path 166" d="M80.455,8.463h-1.41V6.582a6.582,6.582,0,1,0-13.164,0V8.463H64.47a.47.47,0,0,0-.47.47V20.687a1.882,1.882,0,0,0,1.881,1.881H79.045a1.882,1.882,0,0,0,1.881-1.881V8.933A.47.47,0,0,0,80.455,8.463ZM73.87,18.284a.47.47,0,0,1-.467.522H71.522a.47.47,0,0,1-.467-.522l.3-2.667a1.86,1.86,0,0,1-.769-1.512,1.881,1.881,0,1,1,3.761,0,1.86,1.86,0,0,1-.769,1.512Zm2.353-9.821H68.7V6.582a3.761,3.761,0,0,1,7.522,0Z" transform="translate(-64 0)" fill="#312c1e"/>
</svg>
