<svg xmlns="http://www.w3.org/2000/svg" width="15.428" height="15.428" viewBox="0 0 15.428 15.428">
  <path id="plus-square" d="M12.122,39.163v1.1a.414.414,0,0,1-.413.413H8.679v3.031a.414.414,0,0,1-.413.413h-1.1a.414.414,0,0,1-.413-.413V40.679H3.719a.414.414,0,0,1-.413-.413v-1.1a.414.414,0,0,1,.413-.413H6.75V35.719a.414.414,0,0,1,.413-.413h1.1a.414.414,0,0,1,.413.413V38.75h3.031A.414.414,0,0,1,12.122,39.163Zm3.306-5.51V45.775a1.653,1.653,0,0,1-1.653,1.653H1.653A1.653,1.653,0,0,1,0,45.775V33.653A1.653,1.653,0,0,1,1.653,32H13.775A1.653,1.653,0,0,1,15.428,33.653ZM13.775,45.569V33.86a.207.207,0,0,0-.207-.207H1.86a.207.207,0,0,0-.207.207V45.569a.207.207,0,0,0,.207.207H13.569A.207.207,0,0,0,13.775,45.569Z" transform="translate(0 -32)" fill="#fff"/>
</svg>
