<svg xmlns="http://www.w3.org/2000/svg" width="18.222" height="25.09" viewBox="0 0 18.222 25.09">
  <g id="Group_69" data-name="Group 69" transform="translate(0)">
    <path id="Subtraction_1" data-name="Subtraction 1" d="M15.484,25.09H2.738A2.744,2.744,0,0,1,0,22.222L.663,8.464A2.731,2.731,0,0,1,3.4,5.855h.7V5.018a5.018,5.018,0,1,1,10.037,0v.836h.694a2.733,2.733,0,0,1,2.735,2.609l.661,13.758a2.744,2.744,0,0,1-2.735,2.868ZM6.308,16.6a.964.964,0,0,0,0,1.928H8.236v1.928a.964.964,0,0,0,1.928,0V18.527h1.928a.964.964,0,1,0,0-1.928H10.164V14.672a.964.964,0,1,0-1.928,0V16.6Zm6.683-8.077a.837.837,0,1,0,.836.837A.837.837,0,0,0,12.992,8.522Zm-7.762,0a.837.837,0,1,0,.836.837A.837.837,0,0,0,5.23,8.522ZM9.111,1.673A3.349,3.349,0,0,0,5.766,5.018v.836h6.691V5.018A3.349,3.349,0,0,0,9.111,1.673Z" transform="translate(0 0)" fill="#fff"/>
  </g>
</svg>
