<svg xmlns="http://www.w3.org/2000/svg" width="16.066" height="11.039" viewBox="0 0 16.066 11.039">
  <g id="saudi-arabia_2_" data-name="saudi-arabia (2)" transform="translate(0 -77.6)">
    <path id="Path_200" data-name="Path 200" d="M16.066,87.058a1.565,1.565,0,0,1-1.555,1.581H1.555A1.565,1.565,0,0,1,0,87.058V79.181A1.565,1.565,0,0,1,1.555,77.6H14.511a1.565,1.565,0,0,1,1.555,1.581Z" transform="translate(0 0)" fill="#096"/>
    <path id="Path_201" data-name="Path 201" d="M48,77.6H60.956a1.565,1.565,0,0,1,1.555,1.581v7.877a1.565,1.565,0,0,1-1.555,1.581" transform="translate(-46.445)" fill="#038e5c"/>
    <g id="Group_335" data-name="Group 335" transform="translate(0 77.6)">
      <path id="Path_202" data-name="Path 202" d="M16.066,369.6a1.565,1.565,0,0,1-1.555,1.581H1.555A1.565,1.565,0,0,1,0,369.6" transform="translate(0 -360.142)" fill="#007a54"/>
      <path id="Path_203" data-name="Path 203" d="M48,77.6H60.956a1.565,1.565,0,0,1,1.555,1.581v2.876" transform="translate(-46.445 -77.6)" fill="#007a54"/>
    </g>
    <g id="Group_336" data-name="Group 336" transform="translate(1.516 79.938)">
      <path id="Path_204" data-name="Path 204" d="M57.7,150.452c.1-.078.1.13,0,.363a.636.636,0,0,0,.13-.389c-.026-.181-.13-.155-.207-.052C57.574,150.452,57.6,150.5,57.7,150.452Z" transform="translate(-57.25 -150.276)" fill="#fff"/>
      <path id="Path_205" data-name="Path 205" d="M47.288,151.423c.13-.233.078-.415.181-.751.078-.207.078-.052.078.078-.052.337-.026.881.441.855.026.311.1.855.1,1.062,0,.181.026.13.078.026a.92.92,0,0,0,.026-.389c0-.155-.026-.441-.052-.829a.968.968,0,0,0,.155-.181c.052-.13.078-.1.1,0,.052.207.259.337.518.13.259-.181.155-.544.026-.933.1.026.13-.052.078-.155-.026-.052-.078-.1-.1-.155-.052-.052-.078-.1-.13-.052s-.078.1-.1.13-.026.078,0,.155a3.016,3.016,0,0,1,.181.622c.026.13-.026.155-.13.155-.078,0-.207-.026-.259-.233a.926.926,0,0,1-.052-.441.471.471,0,0,0-.078-.363c-.1-.13-.1-.1-.13-.052a.583.583,0,0,0-.026.311c.052.181.078.337.1.441.026.078-.052.233-.181.311-.026-.259-.052-.57-.078-.855.155-.052.078-.233-.052-.441-.078-.155-.13-.1-.181,0a.193.193,0,0,0,.026.233c-.026.078.026.181.052.363a5.061,5.061,0,0,1,.052.751.277.277,0,0,1-.233-.181.729.729,0,0,1-.026-.518c.052-.13.078-.311,0-.363s-.155,0-.207.1a1.1,1.1,0,0,0-.207.6.8.8,0,0,1-.078.337c-.026.078-.1.078-.155-.026a1.888,1.888,0,0,1-.13-.777c0-.1-.026-.13-.052,0a1.683,1.683,0,0,0,.1,1.011C47.081,151.631,47.21,151.579,47.288,151.423Z" transform="translate(-46.809 -149.771)" fill="#fff"/>
      <path id="Path_206" data-name="Path 206" d="M92.713,150.741c.052-.052.052-.052.078,0a.073.073,0,0,0,.13,0,.159.159,0,0,0,.026-.155c-.026-.052-.026-.026-.052.026-.026.1-.13.078-.13-.052s-.026-.052-.078.026c-.052.13-.13.1-.13-.026,0-.078-.026-.155-.078-.052a.275.275,0,0,0,.026.207C92.583,150.793,92.661,150.793,92.713,150.741Z" transform="translate(-90.99 -150.435)" fill="#fff"/>
      <path id="Path_207" data-name="Path 207" d="M51.285,213.477c.078-.026.078-.026.078-.13s-.052-.052-.155-.026a1.65,1.65,0,0,0-.7.492c-.1.13-.026.078.052.026A2.714,2.714,0,0,1,51.285,213.477Z" transform="translate(-50.339 -211.228)" fill="#fff"/>
      <path id="Path_208" data-name="Path 208" d="M52.136,247.459c-.078.13-.233-.052-.13-.389a.659.659,0,0,0,.052-.181v-.181c0-.052-.052.026-.078.13a1.631,1.631,0,0,0-.1.726c.026.285.363.285.389-.078C52.265,247.329,52.214,247.329,52.136,247.459Z" transform="translate(-51.709 -243.551)" fill="#fff"/>
      <path id="Path_209" data-name="Path 209" d="M68.2,156.072c0-.13-.026-.259-.026-.389.026,0,.026-.026.052-.026.078.233.415.181.518.026.052-.078.052-.078.1,0,.078.1.337.155.389,0a.78.78,0,0,0,.026-.415c-.026-.13-.052-.1-.13-.052s-.026.078,0,.155c.026.311-.233.285-.259-.026-.026-.207-.052-.13-.078-.026-.13.389-.466.466-.415,0,0-.13-.078-.078-.13-.026l-.1.1c-.026-.363-.052-.777-.1-1.3.1.13.207-.026.13-.155-.052-.1-.13-.363-.181-.492s-.078-.1-.181.026c-.1.1-.078.13-.052.259a2.663,2.663,0,0,0,.052.57c.026.207.078.648.13,1.192-.052.026-.13.078-.181.1-.026-.1-.1-.155-.207-.259-.155-.155-.259-.155-.389.026a.453.453,0,0,0-.1.389c0,.155-.026.207.1.259a.3.3,0,0,0,.259,0,1.2,1.2,0,0,1,.233-.078.249.249,0,0,1-.052.233c-.311.363-.777.648-.985.389a.822.822,0,0,1-.13-.6c.026-.207-.026-.1-.052-.052a1.142,1.142,0,0,0,0,.777c.13.259.363.363.726.181a1,1,0,0,0,.7-.829v-.181a.567.567,0,0,0,.13-.078v.441a.681.681,0,0,1-.311.674,1.606,1.606,0,0,1-.751.311c-.57.078-.7-.285-.7-.777,0-.078.026-.13.026-.233,0-.207-.026-.181-.1.026a1.7,1.7,0,0,0,.052,1.062c.207.389.881.285,1.4.026A1.128,1.128,0,0,0,68.2,156.072Zm-.726-.389c-.13.052-.181-.026-.155-.1,0-.078.026-.13.13-.078a.44.44,0,0,1,.155.155A.347.347,0,0,1,67.475,155.684Z" transform="translate(-65.467 -153.254)" fill="#fff"/>
      <path id="Path_210" data-name="Path 210" d="M144.758,235.486a.494.494,0,0,0,.052-.337c-.026-.078,0-.1-.078-.155-.078-.026-.1.026-.13.078-.026.078.026.181.13.13a.467.467,0,0,1-.026.259C144.68,235.564,144.706,235.59,144.758,235.486Z" transform="translate(-141.429 -232.227)" fill="#fff"/>
      <path id="Path_211" data-name="Path 211" d="M152.6,183.122c-.1.13-.181.311-.026.415.078.052.233-.026.285-.13.052-.13.026-.155-.078-.026-.13.155-.285.026-.13-.207C152.755,183.018,152.677,182.992,152.6,183.122Z" transform="translate(-149.063 -181.961)" fill="#fff"/>
      <path id="Path_212" data-name="Path 212" d="M138.22,152.551a1.367,1.367,0,0,0,.674-.544c.1.026.13-.052.078-.13a1.265,1.265,0,0,1,.078-.181c.078-.337-.259-.363-.337-.1a.269.269,0,0,0,.052.337,2.139,2.139,0,0,1-.622.544C138.039,152.577,138.064,152.629,138.22,152.551Zm.622-.907c.026-.078.078-.026.078.026a.2.2,0,0,1-.052.1C138.816,151.748,138.816,151.7,138.842,151.644Z" transform="translate(-135.124 -151.365)" fill="#fff"/>
    </g>
    <path id="Path_213" data-name="Path 213" d="M156.583,151.593a.269.269,0,0,0,.052.337c-.026.026-.052.078-.078.1l.13.1c.026-.052.078-.078.1-.13.1.026.13-.052.078-.13a1.265,1.265,0,0,1,.078-.181C157,151.359,156.687,151.334,156.583,151.593Zm.207.078a.2.2,0,0,1-.052.1c-.052-.026-.052-.078-.026-.13C156.739,151.567,156.79,151.619,156.79,151.67Z" transform="translate(-151.478 -71.427)" fill="#cfe7e8"/>
    <path id="Path_214" data-name="Path 214" d="M124.224,202.877a.968.968,0,0,0-.181.155c0-.1.026-.259.026-.311,0-.078-.026-.1-.078-.026a2.063,2.063,0,0,0-.181.518,7.425,7.425,0,0,1-1.036.6c-.13.052-.052.1.052.078a10.193,10.193,0,0,0,.985-.363c.026.233.1.389.311.44.389.1.777-.233,1.218-.829a1.2,1.2,0,0,0,1.036.777c.285.052.259.026.311-.13.026-.13.078-.155-.155-.207-.285-.1-.389-.311-.1-.44a4.754,4.754,0,0,1,.933-.285c.181-.026.233-.026.285-.181.052-.181.078-.207-.1-.181a13.314,13.314,0,0,1-1.451.026c.207-.1.492-.207.7-.285.078.052.1.026.078-.026a.921.921,0,0,0,.233-.1c.233-.13.337-.415.078-.6s-.466-.233-.6-.052c-.1.155-.207.311-.052.518-.233.078-.441.155-.648.233-.155.052-.233.078-.285.285s-.078.207.13.233a1.084,1.084,0,0,1,.726.155c-.285.1-.492.311-.389.6a.691.691,0,0,1-.363-.181c-.207-.207-.207-.57-.285-.985a3.617,3.617,0,0,0-.337-.933c-.052-.155-.078-.078-.13.026a.318.318,0,0,0-.052.311,10.793,10.793,0,0,1,.337,1.088,1.539,1.539,0,0,1-.907.855c-.259.052-.337-.1-.311-.233a2.321,2.321,0,0,0,.492-.389.912.912,0,0,0,.155-1.14q.194.039-.078-.311c-.13-.155-.155-.13-.233.026-.052.13-.1.233.052.285a1.7,1.7,0,0,0,.155.311C124.716,202.54,124.457,202.669,124.224,202.877Zm2.462-1.14c0-.078.026-.078.155,0s.233.1.052.13c-.052.026-.13.026-.181.052A.384.384,0,0,0,126.685,201.736Z" transform="translate(-118.73 -119.679)" fill="#fff"/>
    <g id="Group_337" data-name="Group 337" transform="translate(6.245 81.59)">
      <path id="Path_215" data-name="Path 215" d="M238.688,238.146c-.13,0-.7.026-1.088.026l.518.441a2.931,2.931,0,0,1,.389-.1c.181-.026.233-.026.285-.181C238.844,238.146,238.87,238.12,238.688,238.146Z" transform="translate(-236.149 -236.928)" fill="#cfe7e8"/>
      <path id="Path_216" data-name="Path 216" d="M192.8,200.8l.052.052C192.852,200.8,192.826,200.8,192.8,200.8Z" transform="translate(-192.8 -200.8)" fill="#cfe7e8"/>
      <path id="Path_217" data-name="Path 217" d="M225.085,203.187c.155-.078.337-.13.466-.181.078.052.1.026.078-.026a.92.92,0,0,0,.233-.1c.233-.13.337-.415.078-.6s-.466-.233-.6-.052c-.1.155-.207.311-.052.518a2.762,2.762,0,0,0-.492.181Zm.57-.648c.13.078.233.1.052.13-.052.026-.13.026-.181.052a.456.456,0,0,1-.026-.155C225.474,202.462,225.526,202.462,225.655,202.539Z" transform="translate(-223.764 -202.073)" fill="#cfe7e8"/>
    </g>
    <path id="Path_218" data-name="Path 218" d="M252.97,266.457a1.354,1.354,0,0,0,.311-.181c.1-.1.026-.078-.052-.052a2.679,2.679,0,0,1-.259.1c-.1.052-.13,0-.078-.181.052-.155,0-.155-.078-.13s-.1.078-.181.13c-.052.026-.052.078.078.026.1-.052.078,0,.052.13C252.711,266.431,252.788,266.509,252.97,266.457Z" transform="translate(-244.419 -182.301)" fill="#fff"/>
    <g id="Group_338" data-name="Group 338" transform="translate(5.591 79.881)">
      <path id="Path_219" data-name="Path 219" d="M173.177,149.474c.078-.181.13-.363.181-.492s.1-.1.078.026c-.026.233-.026.6.207.751.233.13.6-.1.726-.363.389.492.726.259.751-.207a1.863,1.863,0,0,0-.1-.57c-.052-.1,0-.1.052-.052s.155.1.1-.078a.834.834,0,0,0-.207-.337c-.078-.078-.1-.026-.13.026a.345.345,0,0,1-.078.13c-.052.052-.026.078,0,.155.155.363.285.907.052.959-.207.052-.337-.415-.337-.622a2.112,2.112,0,0,0-.1-.648c-.052-.155-.078-.155-.13-.078-.026.052-.026.1-.078.155-.026.052,0,.078.026.181.13.6.1.855-.155,1.011s-.415,0-.415-.181a4.012,4.012,0,0,1,.026-.57c.026-.155.052-.207,0-.285s-.1-.052-.181.052a3.746,3.746,0,0,0-.389.8c-.052.181-.181.13-.259-.026a1.219,1.219,0,0,1-.052-.674c.026-.13.026-.181-.052-.052a.955.955,0,0,0,.155,1.036C173,149.759,173.1,149.655,173.177,149.474Z" transform="translate(-172.627 -148.024)" fill="#cfe7e8"/>
      <path id="Path_220" data-name="Path 220" d="M207.743,153.422c0,.078,0,.181.052.026a1.04,1.04,0,0,0-.026-.492c-.052-.13-.078-.155-.13-.1s-.052.078,0,.13A.693.693,0,0,1,207.743,153.422Z" transform="translate(-206.467 -152.672)" fill="#cfe7e8"/>
      <path id="Path_221" data-name="Path 221" d="M216.885,205.341c0,.207-.052.207-.13,0-.026-.078-.052-.078-.078.026,0,.181-.078.207-.13.026-.026-.078-.026-.155-.052-.026a.3.3,0,0,0,.052.259c.052.052.13.052.155-.026s.052-.078.1-.026.259,0,.155-.285C216.911,205.186,216.885,205.212,216.885,205.341Z" transform="translate(-215.066 -203.373)" fill="#cfe7e8"/>
      <path id="Path_222" data-name="Path 222" d="M292.134,151.326a.345.345,0,0,1,.13.337c-.026.13,0,.207.078.026a.594.594,0,0,0-.052-.518c-.078-.13-.1-.078-.155-.026C292.083,151.223,292.057,151.3,292.134,151.326Z" transform="translate(-288.216 -150.99)" fill="#cfe7e8"/>
      <path id="Path_223" data-name="Path 223" d="M251.252,150.019c0,.078.026.13.13.155.207.285.441.6.648.881.026.259.078.518.1.751a6.523,6.523,0,0,1,.078,1.529c-.052.233,0,.311.1-.026a2.466,2.466,0,0,0,.026-1.166c-.026-.207-.026-.441-.052-.7a9.627,9.627,0,0,1,.8,1.425c.078.207.155.233.078-.026a6.508,6.508,0,0,0-.933-1.762,4.6,4.6,0,0,1-.026-.57c.078.078.13.026.1-.078a5.034,5.034,0,0,0-.207-.57c-.026-.1-.13-.1-.181.026-.052.155-.052.181,0,.285a3.993,3.993,0,0,0,.052.492,4.58,4.58,0,0,0-.311-.441c.13.052.233.026.1-.13-.13-.13-.311-.285-.415-.389s-.155-.026-.155.052C251.252,149.889,251.278,149.941,251.252,150.019Z" transform="translate(-248.655 -149.605)" fill="#cfe7e8"/>
      <path id="Path_224" data-name="Path 224" d="M293.755,178.85c-.026.13-.078.078-.1-.026-.026-.052-.052-.026-.052.078.026.1.052.181.13.1.052-.052.052-.052.13,0,.052.052.1,0,.13-.026a.481.481,0,0,0,0-.207c-.026-.13-.052-.052-.078.052s-.078.13-.1,0C293.807,178.721,293.755,178.747,293.755,178.85Z" transform="translate(-289.682 -177.711)" fill="#cfe7e8"/>
      <path id="Path_225" data-name="Path 225" d="M286.7,155.152c.026.466.078.674-.207,1.011a1.346,1.346,0,0,1-.648.466c-.181.052-.233.13.026.1.389-.026.44-.026.777-.415.181-.207.259-.466.259-1.088-.026-1.088-.155-1.555-.155-2.151.052.052.13.052.1-.052a2.429,2.429,0,0,1-.1-.415c-.052-.13-.078-.181-.13-.1s-.1.1-.13.155a.2.2,0,0,0,0,.207C286.651,154.141,286.677,154.686,286.7,155.152Z" transform="translate(-282.033 -152.328)" fill="#cfe7e8"/>
      <path id="Path_226" data-name="Path 226" d="M327.406,155.108a1.832,1.832,0,0,1,0,.751c-.026.078.026.13.078,0a1.6,1.6,0,0,0,.052-1.088c-.026-.389-.181-1.4-.207-1.814l.026.026c.1.052.233.1.155-.052a3.086,3.086,0,0,1-.207-.518c-.052-.155-.078-.155-.155-.026-.155.207-.052.415,0,.674C327.251,153.942,327.38,154.849,327.406,155.108Z" transform="translate(-322.063 -152.155)" fill="#cfe7e8"/>
      <path id="Path_227" data-name="Path 227" d="M350.53,184.337a1.933,1.933,0,0,1,.181.311c.052.13.1.026.1-.052a1.951,1.951,0,0,1,0-.389c.052-.13.13.052.156-.026.026-.052-.026-.078-.052-.13-.026-.078-.052-.052-.1-.026a.237.237,0,0,0-.078.13v.285c0,.1-.026.1-.052.052a1.164,1.164,0,0,0-.155-.311.073.073,0,0,0-.13.052v.13C350.4,184.415,350.5,184.415,350.53,184.337Z" transform="translate(-344.642 -182.835)" fill="#cfe7e8"/>
      <path id="Path_228" data-name="Path 228" d="M352.8,208.626c0,.078.1-.026.181-.078s.311-.207.415-.259.078-.078.052-.181c0-.1-.078-.026-.156.052s-.311.233-.389.311S352.8,208.574,352.8,208.626Z" transform="translate(-346.964 -206.113)" fill="#cfe7e8"/>
      <path id="Path_229" data-name="Path 229" d="M328.284,153.55a1.263,1.263,0,0,1-.1-.6c0-.155-.026-.285-.078-.026-.155.622-.052.751.1.881.207.181.285.207.389.026.207-.311.285-.57.389-.726.1-.13.1-.026.155.026a.571.571,0,0,0,.415.233c.181.026.492-.13.466-.7-.026-.363-.052-.829-.078-1.347.181.233.311.441.441.622a6.091,6.091,0,0,1,.078.881c-.026.285.052.285.1,0a2.591,2.591,0,0,0,0-.648,4.77,4.77,0,0,1,.441.648c.1.181.155.311.13-.026,0-.13-.052-.233-.207-.466-.155-.207-.285-.415-.415-.622-.052-.492-.1-1.036-.1-1.322.078.052.13,0,.078-.1a3.931,3.931,0,0,0-.155-.518c-.052-.1-.1-.1-.155.026-.052.1-.1.155-.078.233a10.561,10.561,0,0,0,.155,1.373c-.13-.181-.259-.363-.363-.518,0-.181-.026-.363-.026-.544.078.052.1.052.078-.078a3.461,3.461,0,0,0-.181-.466c-.052-.1-.078-.1-.13-.026a.313.313,0,0,0-.026.363c0,.13.026.233.026.363a2.709,2.709,0,0,0-.207-.285c.078.026.13-.026.052-.1s-.233-.207-.311-.285c-.078-.1-.13-.078-.13,0v.233a.405.405,0,0,0,.078.259c.181.233.389.466.544.7.078.829.1,1.373.1,1.71,0,.207-.078.311-.181.337s-.207-.026-.311-.181c-.181-.259-.259-.207-.389.026s-.233.415-.311.57C328.517,153.627,328.388,153.757,328.284,153.55Z" transform="translate(-322.992 -149.638)" fill="#cfe7e8"/>
      <path id="Path_230" data-name="Path 230" d="M408.625,160.35c0,.155.052.13.078,0a1.006,1.006,0,0,0-.052-.544c-.078-.181-.1-.1-.13-.052-.052.078-.052.1.026.181A1.474,1.474,0,0,1,408.625,160.35Z" transform="translate(-400.845 -159.314)" fill="#cfe7e8"/>
      <path id="Path_231" data-name="Path 231" d="M401.784,152.667c-.052-1.088-.181-1.555-.155-1.969q.155.117.078-.078c-.052-.13-.13-.285-.181-.441-.052-.13-.078-.1-.155,0a.219.219,0,0,0-.052.233c.155,1.322.233,2.021.259,2.436a1.272,1.272,0,0,1-.674,1.3c-.181.13-.389.259.052.155C401.369,154.17,401.836,153.885,401.784,152.667Z" transform="translate(-393.305 -150.025)" fill="#cfe7e8"/>
      <path id="Path_232" data-name="Path 232" d="M389.026,262.947c-.078.1.1.155.13.078.052.078,0,.207-.078.285-.13.1-.052.13.026.052.078-.052.285-.285.156-.44A.164.164,0,0,0,389.026,262.947Z" transform="translate(-381.998 -259.165)" fill="#cfe7e8"/>
    </g>
    <path id="Path_233" data-name="Path 233" d="M105.714,312.149c-.337,0-.648,0-.985.026v-.1c.1-.13.078-.13,0-.259-.026-.052-.052-.1-.13,0s-.078.13.026.259v.1c-2.565.026-5.39,0-7.825-.026.259.44,1.14.415,1.943.415.726,0,2.9,0,5.856-.078v.13c-.1.13-.078.13,0,.259.078.1.1.052.13,0a.08.08,0,0,0,.026-.052h.389c0,.052.078.078.1.078s.1-.026.1-.078h.441a.2.2,0,0,0,.181.1c.155,0,.233-.181.207-.415C106.154,312.175,106.025,312.123,105.714,312.149Zm-.363.518c0-.052-.078-.078-.1-.078s-.1.026-.1.078h-.389c0-.026-.026-.052-.078-.1v-.13c.337,0,.7-.026,1.062-.026a.718.718,0,0,0-.026.233Z" transform="translate(-93.665 -226.568)" fill="#fff"/>
    <path id="Path_234" data-name="Path 234" d="M337.059,312.149c-.337,0-.648,0-.985.026v-.1c.1-.13.078-.13,0-.259-.026-.052-.052-.1-.13,0s-.078.13.026.259v.1h-.026l.363.311c.259,0,.544-.026.8-.026a.717.717,0,0,0-.026.233H336.7c0-.052-.078-.078-.1-.078s-.078.026-.078.052l.181.155V312.8h.441a.2.2,0,0,0,.181.1c.155,0,.233-.181.207-.415C337.5,312.175,337.37,312.123,337.059,312.149Z" transform="translate(-325.01 -226.568)" fill="#cfe7e8"/>
  </g>
</svg>
