<svg
fill="white"
 xmlns="http://www.w3.org/2000/svg" width="17.169" height="19.229" viewBox="0 0 17.169 19.229">
  <path id="secure" d="M29.232,2.692a.629.629,0,0,0-.454-.519L21.049.023a.628.628,0,0,0-.337,0L12.984,2.173a.628.628,0,0,0-.454.519c-.045.322-1.067,7.938,1.556,11.727a12.339,12.339,0,0,0,6.648,4.793.63.63,0,0,0,.3,0,12.338,12.338,0,0,0,6.648-4.793C30.3,10.63,29.277,3.014,29.232,2.692ZM25.865,7.138,20.593,12.41a.628.628,0,0,1-.889,0L16.445,9.15a.628.628,0,0,1,0-.889l.647-.647a.628.628,0,0,1,.889,0l2.168,2.168,4.18-4.18a.628.628,0,0,1,.889,0l.647.647A.628.628,0,0,1,25.865,7.138Z" transform="translate(-12.296 -0.001)" />
</svg>
