<svg xmlns="http://www.w3.org/2000/svg" width="35.229" height="21" viewBox="0 0 35.229 21">
  <g id="Group_1988" data-name="Group 1988" transform="translate(-1444 -1749)">
    <g id="eye" transform="translate(1444 1749)">
      <path id="Path_167" data-name="Path 167" d="M17.615,98.725c-6.731,0-12.835,3.683-17.339,9.664a1.4,1.4,0,0,0,0,1.665c4.5,5.989,10.608,9.671,17.339,9.671s12.835-3.683,17.339-9.664a1.4,1.4,0,0,0,0-1.665C30.45,102.408,24.346,98.725,17.615,98.725Zm.483,17.894a7.41,7.41,0,1,1,6.911-6.911A7.414,7.414,0,0,1,18.1,116.619Zm-.223-3.416a3.99,3.99,0,1,1,3.726-3.726A3.983,3.983,0,0,1,17.874,113.2Z" transform="translate(0 -98.725)" fill="#312c1e"/>
    </g>
  </g>
</svg>
