<svg xmlns="http://www.w3.org/2000/svg" xmlns:xlink="http://www.w3.org/1999/xlink" width="19" height="19" viewBox="0 0 19 19">
  <defs>
    <clipPath id="clip-path">
      <rect id="Rectangle_505" data-name="Rectangle 505" width="19" height="19" fill="none"/>
    </clipPath>
  </defs>
  <g id="Group_245" data-name="Group 245" transform="translate(0.495 0.495)">
    <g id="Group_245-2" data-name="Group 245" transform="translate(-0.495 -0.495)" clip-path="url(#clip-path)">
      <path id="Path_175" data-name="Path 175" d="M71.373,91.45c-.1.764-.092,1.587-.153,1.852-.113.48-.76,2.957-.76,2.957h1.564a12.258,12.258,0,0,0,.182-2.43c-.023-.245-.833-2.38-.833-2.38" transform="translate(-59.916 -77.896)" fill="#fff"/>
      <path id="Path_176" data-name="Path 176" d="M87.828,75.4c-.191.09-.456.227-.824.432a4.5,4.5,0,0,1-2.714.472c-.539-.01-.857,0-1.12.007l.674,3.617c-.1.7-.087,2.583-.087,2.583H86.9A1.306,1.306,0,0,0,88.2,81.2c0-.738-.009-1.514-.009-1.72,0-.392-.368-4.08-.368-4.081" transform="translate(-70.803 -64.147)" fill="#fff"/>
      <path id="Path_177" data-name="Path 177" d="M15.156,0H2.764A2.764,2.764,0,0,0,0,2.764V15.156A2.764,2.764,0,0,0,2.764,17.92h6.6A24.505,24.505,0,0,0,9.9,14.962l-.067-2a6.466,6.466,0,0,0-.853-2.106c-.245-.582-.9-.595-1.694-.454A2.552,2.552,0,0,1,4.792,9.391,9.563,9.563,0,0,1,3.515,6.9a8.918,8.918,0,0,1-1.164-.245,1.422,1.422,0,0,0-.85.023.556.556,0,0,1-.315.036c-.237-.07-.211-.232-.211-.232a.676.676,0,0,1,.079-.82,1.077,1.077,0,0,1,.585-.5c.394-.118,1.578-.417,1.578-.417A1.471,1.471,0,0,1,3.95,4.49a.622.622,0,0,0,.45-.222.67.67,0,0,1,.249-.211c.3-.079.368.106.224.262-.095.1-.086.624-.086.624.571.71.985,1.667,1.5,2.256h0a.192.192,0,0,0,.237.039,3.552,3.552,0,0,0,.734-.54A11.635,11.635,0,0,1,9.74,5.676c.421-.2,1.418-1.888,3.048-1.888,1.426,0,2.887,1.358,3.532,2.041a1.645,1.645,0,0,0,.787.463,1.992,1.992,0,0,1,.813.41V2.764A2.764,2.764,0,0,0,15.156,0" transform="translate(0.443 0.443)" fill="#fff"/>
    </g>
  </g>
</svg>
