<svg  id="delivery-truck_1_" data-name="delivery-truck (1)" xmlns="http://www.w3.org/2000/svg" width="26.39" height="17.799" viewBox="0 0 26.39 17.799">
  <g id="Group_145" data-name="Group 145" transform="translate(0 0)">
    <g id="Group_144" data-name="Group 144" transform="translate(0 0)">
      <path id="Path_133" data-name="Path 133" d="M0,233.488a.459.459,0,0,0,.46.483h.735a3.254,3.254,0,0,1,2.923-1.913,3.254,3.254,0,0,1,2.923,1.913H16.59v-3.907H0Z" transform="translate(0 -219.624)" />
      <path id="Path_134" data-name="Path 134" d="M32.638,277.32a2.166,2.166,0,1,0,2.166,2.166A2.166,2.166,0,0,0,32.638,277.32Z" transform="translate(-28.52 -263.853)" />
      <path id="Path_135" data-name="Path 135" d="M283.493,191.971l-2.062-.907H275v6.405h1.248a3.189,3.189,0,0,1,5.845,0h1.222a.459.459,0,0,0,.46-.483v-4.55A.5.5,0,0,0,283.493,191.971Z" transform="translate(-257.386 -183.122)" />
      <path id="Path_136" data-name="Path 136" d="M279.31,121.852a1.471,1.471,0,0,0-1.328-.791H275v3.459h5.7Z" transform="translate(-257.386 -117.602)" />
      <path id="Path_137" data-name="Path 137" d="M15.119,67.064H1.463A1.476,1.476,0,0,0,0,68.566V76.48H16.59V68.566s0,0,0-.007A1.483,1.483,0,0,0,15.119,67.064Z" transform="translate(0 -67.064)" />
      <path id="Path_138" data-name="Path 138" d="M308.471,277.32a2.166,2.166,0,1,0,2.166,2.166h0A2.166,2.166,0,0,0,308.471,277.32Z" transform="translate(-286.686 -263.853)" />
    </g>
  </g>
</svg>
