<svg id="Group_46" data-name="Group 46" xmlns="http://www.w3.org/2000/svg" width="61.034" height="53.996" viewBox="0 0 61.034 53.996">
  <circle id="Ellipse_6" data-name="Ellipse 6" cx="22.416" cy="22.416" r="22.416" transform="translate(16.202 9.163)" fill="#aaa" opacity="0.29"/>
  <g id="delivery-truck">
    <path id="Path_79" data-name="Path 79" d="M2.014,117.823V93.4a2.458,2.458,0,0,1,2.458-2.458H28.886A2.458,2.458,0,0,1,31.344,93.4v24.427a.819.819,0,0,1-.819.819H2.834A.819.819,0,0,1,2.014,117.823Zm19.715,8.368a5.1,5.1,0,1,1-5.1-5.1A5.1,5.1,0,0,1,21.73,126.191Zm-2.549,0a2.549,2.549,0,1,0-2.549,2.549A2.549,2.549,0,0,0,19.181,126.191Zm-6.939-5.1H.819a.819.819,0,0,0-.819.819V124.4a.819.819,0,0,0,.819.819H9.975A6.724,6.724,0,0,1,12.242,121.094Zm36.158,5.1a5.1,5.1,0,1,1-5.1-5.1A5.1,5.1,0,0,1,48.4,126.191Zm-2.549,0A2.549,2.549,0,1,0,43.3,128.74,2.549,2.549,0,0,0,45.852,126.191Zm11.56-4.278V124.4a.819.819,0,0,1-.819.819H49.96a6.727,6.727,0,0,0-13.314,0H23.289a6.725,6.725,0,0,0-2.267-4.124H33.686V97.661a1.639,1.639,0,0,1,1.638-1.638h7.734a6.554,6.554,0,0,1,5.432,2.887l4.986,7.385a6.554,6.554,0,0,1,1.122,3.667v11.133h1.994A.819.819,0,0,1,57.412,121.913ZM49.1,106.483l-3.987-5.665a.819.819,0,0,0-.67-.348H38.225a.819.819,0,0,0-.819.819v5.665a.819.819,0,0,0,.819.819H48.431A.819.819,0,0,0,49.1,106.483Z" transform="translate(0 -90.939)" fill="#2b5842"/>
  </g>
</svg>
