<svg id="XMLID_826_" xmlns="http://www.w3.org/2000/svg" width="43.247" height="35.408" viewBox="0 0 43.247 35.408">
  <path id="XMLID_827_" d="M42.265,32.183a16.394,16.394,0,0,1-2.092.762,9.246,9.246,0,0,0,1.883-3.311.7.7,0,0,0-1.02-.812,16.461,16.461,0,0,1-4.866,1.923,9.288,9.288,0,0,0-15.782,6.636,9.47,9.47,0,0,0,.076,1.2A23.768,23.768,0,0,1,4.15,29.926a.7.7,0,0,0-1.143.09A9.3,9.3,0,0,0,3.959,40.7a7.865,7.865,0,0,1-1.243-.555.7.7,0,0,0-1.036.594c0,.041,0,.082,0,.124a9.317,9.317,0,0,0,4.545,7.984c-.236-.024-.472-.058-.706-.1a.7.7,0,0,0-.8.9,9.281,9.281,0,0,0,6.8,6.223,16.425,16.425,0,0,1-8.779,2.506,16.8,16.8,0,0,1-1.966-.115.7.7,0,0,0-.458,1.28A25.037,25.037,0,0,0,13.858,63.5a24.086,24.086,0,0,0,18.661-8.2,25.979,25.979,0,0,0,6.467-16.932c0-.255,0-.512-.012-.768a18.048,18.048,0,0,0,4.154-4.4.7.7,0,0,0-.862-1.026Z" transform="translate(0.002 -28.097)" fill="#fff"/>
</svg>
