<svg xmlns="http://www.w3.org/2000/svg" width="17.902" height="22.959" viewBox="0 0 17.902 22.959">
  <g id="user" transform="translate(0)">
    <path id="Path_164" data-name="Path 164" d="M9.087,314.184a7.1,7.1,0,0,1-8.935,0,8.957,8.957,0,0,0-4.484,7.754v3.239a.694.694,0,0,0,.694.694H12.877a.694.694,0,0,0,.694-.694v-3.239a8.956,8.956,0,0,0-4.483-7.754Zm0,0" transform="translate(4.331 -302.913)" fill="#312c1e"/>
    <path id="Path_165" data-name="Path 165" d="M96.887,5.731a5.731,5.731,0,1,0-5.731,5.731A5.738,5.738,0,0,0,96.887,5.731Zm0,0" transform="translate(-82.205)" fill="#312c1e"/>
  </g>
</svg>
