<svg xmlns="http://www.w3.org/2000/svg" width="55.285" height="58.474" viewBox="0 0 55.285 58.474">
  <g id="Group_46" data-name="Group 46" transform="translate(0)">
    <circle id="Ellipse_6" data-name="Ellipse 6" cx="22.416" cy="22.416" r="22.416" transform="translate(10.453 13.642)" fill="#aaa" opacity="0.29"/>
    <path id="secure" d="M56.644,7.048a1.646,1.646,0,0,0-1.189-1.359L35.217.061a1.645,1.645,0,0,0-.882,0L14.1,5.689a1.646,1.646,0,0,0-1.189,1.359c-.117.844-2.8,20.787,4.073,30.709A32.311,32.311,0,0,0,34.389,50.308a1.65,1.65,0,0,0,.773,0A32.31,32.31,0,0,0,52.57,37.756C59.439,27.835,56.761,7.892,56.644,7.048ZM47.827,18.691l-13.8,13.8a1.645,1.645,0,0,1-2.327,0L23.16,23.96a1.645,1.645,0,0,1,0-2.327l1.695-1.695a1.646,1.646,0,0,1,2.327,0l5.677,5.677L43.8,14.669a1.645,1.645,0,0,1,2.327,0l1.695,1.695A1.646,1.646,0,0,1,47.827,18.691Z" transform="translate(-12.296 0)" fill="#2b5842"/>
  </g>
</svg>
