<svg id="Group_160" data-name="Group 160" xmlns="http://www.w3.org/2000/svg" xmlns:xlink="http://www.w3.org/1999/xlink" width="163.849" height="110.272" viewBox="0 0 163.849 110.272">
  <defs>
    <clipPath id="clip-path">
      <rect id="Rectangle_499" data-name="Rectangle 499" width="163.849" height="110.272" fill="#fff"/>
    </clipPath>
  </defs>
  <g id="Group_159" data-name="Group 159" clip-path="url(#clip-path)">
    <path id="Path_142" data-name="Path 142" d="M32.084,33.413H30.467V19.085h1.617Zm13.228-3.89v.041c0,2.457-2.047,4.054-4.893,4.054a8.381,8.381,0,0,1-5.852-2.293l1-1.187a6.824,6.824,0,0,0,4.912,2.026c1.924,0,3.192-1.023,3.192-2.436v-.04c0-1.331-.714-2.088-3.723-2.723-3.3-.716-4.813-1.781-4.813-4.135v-.04c0-2.252,1.988-3.91,4.708-3.91a7.48,7.48,0,0,1,5.036,1.76l-.94,1.249a6.3,6.3,0,0,0-4.136-1.556c-1.861,0-3.05,1.024-3.05,2.314v.041c0,1.35.738,2.108,3.89,2.782,3.192.7,4.666,1.864,4.666,4.053m14.4-10.684a7.259,7.259,0,0,0-7.327,7.41v.041A7.308,7.308,0,1,0,67,26.249v-.041a7.192,7.192,0,0,0-7.288-7.369m5.61,7.451a5.629,5.629,0,0,1-5.61,5.875,5.7,5.7,0,0,1-5.648-5.916v-.041a5.628,5.628,0,0,1,5.607-5.874,5.7,5.7,0,0,1,5.651,5.915ZM47.98,19.085H49.6V33.413H47.98ZM20.675,33.516,14.514,19.085h1.8l.881,2.133,4.216,10.209.4.978-.155-1.574,4.869-11.746h1.74L22.109,33.516ZM80.189,19.085h1.575V33.413H80.475L70.327,20.525l.895,2.089v10.8H69.648V19.085h1.515l9.69,12.328-.664-1.76Z" fill="#fff"/>
    <path id="Path_143" data-name="Path 143" d="M125.492,34.93h1.519v1.517h-1.519Zm3.034,0h1.519v1.517h-1.519ZM97.288,17.583H95.77V16.066h1.518Zm37.1,10.609a5.986,5.986,0,0,0,2,.911,9.577,9.577,0,0,0,2.408.293h.4l.511-1.07v1.506a2,2,0,0,1-.684,1.707,3.135,3.135,0,0,1-1.915.512,5.49,5.49,0,0,1-1.259-.133,7.409,7.409,0,0,1-1.282-.455l-.472,1.46a13.588,13.588,0,0,0,1.545.483,5.775,5.775,0,0,0,1.355.161,4.291,4.291,0,0,0,3.225-1.052,3.932,3.932,0,0,0,1-2.835V19.1H138.8a7.818,7.818,0,0,0-2.561.4,6.148,6.148,0,0,0-1.98,1.09,4.825,4.825,0,0,0-1.28,1.649,4.768,4.768,0,0,0-.457,2.076,4.887,4.887,0,0,0,.5,2.3,4.422,4.422,0,0,0,1.367,1.574m0-5.375a3.722,3.722,0,0,1,.928-1.167,4.335,4.335,0,0,1,1.318-.749,4.568,4.568,0,0,1,1.488-.263v0h2.449l-.865.432V27.88H138.17a5.284,5.284,0,0,1-1.6-.238,4.02,4.02,0,0,1-1.317-.692,3.2,3.2,0,0,1-.892-1.118,3.417,3.417,0,0,1-.322-1.518,3.2,3.2,0,0,1,.352-1.5m-34.067-5.234H98.8V16.066h1.517Zm44.742,15.984a4.705,4.705,0,0,1-1.232-.17l.4-1.46a3,3,0,0,0,.417.1,3.113,3.113,0,0,0,.361.019,1.761,1.761,0,0,0,.712-.123.951.951,0,0,0,.435-.4,2.021,2.021,0,0,0,.229-.72,7.624,7.624,0,0,0,.065-1.09V19.1h1.518V29.719a8.032,8.032,0,0,1-.144,1.6,3.306,3.306,0,0,1-.481,1.213,2.239,2.239,0,0,1-.9.768,3.181,3.181,0,0,1-1.375.265m-3.84-15.984H137.9V16.344a1.994,1.994,0,0,1,.465-1.461,1.849,1.849,0,0,1,1.339-.454h1.07v1.057h-1.043a.606.606,0,0,0-.466.131.7.7,0,0,0-.123.445v.351h2.083ZM96.184,33.357h3.152V32.222a1.558,1.558,0,0,0,.1.157,2.218,2.218,0,0,0,.9.768,3.178,3.178,0,0,0,1.375.266h28.339V19.1h-1.519V31.9H101.763a1.709,1.709,0,0,1-.71-.124.949.949,0,0,1-.438-.4,2.049,2.049,0,0,1-.226-.721,7.586,7.586,0,0,1-.068-1.09V19.1h-4.1a6.982,6.982,0,0,0-7.05,7.129v.04a6.916,6.916,0,0,0,7.01,7.088m-5.4-7.168a5.414,5.414,0,0,1,5.4-5.651h3.549L98.806,21v8.562a8.208,8.208,0,0,0,.14,1.6,3.806,3.806,0,0,0,.237.754H96.224a5.48,5.48,0,0,1-5.436-5.69Z" fill="#fff"/>
    <path id="Path_144" data-name="Path 144" d="M20.13,105.172H19.011l-2.162-2.851-1.067,1.093v1.758h-.927V99.1h.927v3.263l3.09-3.263h1.112l-2.5,2.594Z" fill="#fff"/>
    <rect id="Rectangle_406" data-name="Rectangle 406" width="0.933" height="6.072" transform="translate(21.378 99.101)" fill="#fff"/>
    <path id="Path_145" data-name="Path 145" d="M29.437,99.1v6.072h-.8l-3.561-4.6v4.6h-.915V99.1h.891l3.468,4.474V99.1Z" fill="#fff"/>
    <path id="Path_146" data-name="Path 146" d="M36.63,101.854v2.5a3.9,3.9,0,0,1-2.521.925,3,3,0,0,1-3.153-3.124v-.019a3.107,3.107,0,0,1,3.134-3.143,3.287,3.287,0,0,1,2.28.776l-.588.7a2.493,2.493,0,0,0-1.734-.636,2.208,2.208,0,0,0-2.1,2.3,2.161,2.161,0,0,0,2.2,2.314,2.616,2.616,0,0,0,1.555-.489l.034-.027v-1.291H34.14v-.787Z" fill="#fff"/>
    <path id="Path_147" data-name="Path 147" d="M40.552,99.1h-2.24v6.071h2.24a3.041,3.041,0,1,0,0-6.071m0,5.239H39.24V99.933h1.312a2.2,2.2,0,1,1,0,4.407" fill="#fff"/>
    <path id="Path_148" data-name="Path 148" d="M48.165,98.991a3.094,3.094,0,0,0-3.187,3.143v.019a3.179,3.179,0,1,0,3.187-3.162m2.188,3.162a2.191,2.191,0,0,1-2.188,2.287,2.232,2.232,0,0,1-2.206-2.306,2.2,2.2,0,0,1,2.189-2.3,2.233,2.233,0,0,1,2.205,2.3Z" fill="#fff"/>
    <path id="Path_149" data-name="Path 149" d="M58.829,99.1v6.072H57.9v-4.663L55.827,103.6l-2.052-3.074v4.645h-.914V99.1H53.9l1.944,3.02,1.942-3.02Z" fill="#fff"/>
    <path id="Path_150" data-name="Path 150" d="M66.612,98.991a3.1,3.1,0,0,0-3.187,3.143v.019a3.179,3.179,0,1,0,3.187-3.162m2.188,3.162a2.191,2.191,0,0,1-2.188,2.287,2.23,2.23,0,0,1-2.2-2.306,2.193,2.193,0,0,1,2.185-2.3,2.233,2.233,0,0,1,2.205,2.3Z" fill="#fff"/>
    <path id="Path_151" data-name="Path 151" d="M72.241,99.933V101.8h3.146v.833H72.241v2.54h-.93V99.1h4.478v.833Z" fill="#fff"/>
    <path id="Path_152" data-name="Path 152" d="M84.675,103.483c0,1.08-.843,1.779-2.146,1.779a3.762,3.762,0,0,1-2.485-.925l.553-.658a2.917,2.917,0,0,0,1.961.778c.721,0,1.186-.341,1.186-.887,0-.53-.342-.772-1.47-1.034-1.306-.314-2.012-.691-2.012-1.8a1.825,1.825,0,0,1,2.045-1.729,3.345,3.345,0,0,1,2.149.719l-.494.7a2.825,2.825,0,0,0-1.675-.609c-.643,0-1.1.34-1.1.841,0,.543.332.772,1.545,1.062,1.395.341,1.939.83,1.939,1.765" fill="#fff"/>
    <path id="Path_153" data-name="Path 153" d="M89.077,99.056h-.906L85.5,105.173h.945l.641-1.506h3.059l.634,1.506h.976Zm-1.664,3.806,1.193-2.791,1.2,2.791Z" fill="#fff"/>
    <path id="Path_154" data-name="Path 154" d="M97.779,99.1v3.454a2.42,2.42,0,0,1-2.6,2.718,2.384,2.384,0,0,1-2.573-2.663V99.1h.93v3.463c0,1.185.6,1.867,1.659,1.867s1.651-.663,1.651-1.821V99.1Z" fill="#fff"/>
    <path id="Path_155" data-name="Path 155" d="M101.793,99.1H99.549v6.071h2.244a3.041,3.041,0,1,0,0-6.071m0,5.239h-1.314V99.933h1.314a2.2,2.2,0,1,1,0,4.407" fill="#fff"/>
    <rect id="Rectangle_407" data-name="Rectangle 407" width="0.93" height="6.072" transform="translate(106.58 99.101)" fill="#fff"/>
    <path id="Path_156" data-name="Path 156" d="M115.7,99.056h-.906l-2.674,6.117h.943l.641-1.506h3.061l.631,1.506h.979Zm-1.664,3.806,1.193-2.791,1.2,2.791Z" fill="#fff"/>
    <path id="Path_157" data-name="Path 157" d="M123.009,102.847l.114-.034a1.789,1.789,0,0,0,1.43-1.809,1.82,1.82,0,0,0-.494-1.3,2.435,2.435,0,0,0-1.742-.6h-2.7v6.071h.931V103h1.479l.042.037,1.508,2.138h1.091Zm-2.459-.655V99.933h1.679c.876,0,1.377.406,1.377,1.115s-.538,1.144-1.369,1.144Z" fill="#fff"/>
    <path id="Path_158" data-name="Path 158" d="M129.345,99.056h-.906l-2.674,6.117h.938l.644-1.506h3.059l.633,1.506h.979Zm-1.669,3.806,1.194-2.791,1.207,2.791Z" fill="#fff"/>
    <path id="Path_159" data-name="Path 159" d="M137.108,102.09l-.182-.064.17-.087a1.4,1.4,0,0,0,.849-1.318,1.332,1.332,0,0,0-.4-.994,2.183,2.183,0,0,0-1.573-.526H133.26v6.071h2.805c1.4,0,2.227-.61,2.227-1.629,0-.73-.364-1.172-1.184-1.453m-2.933-2.184h1.659c.737,0,1.178.328,1.178.874,0,.61-.458.951-1.256.951h-1.581Zm1.9,4.461h-1.9v-1.876H136c1.187,0,1.364.575,1.364.919,0,.616-.47.957-1.286.957" fill="#fff"/>
    <rect id="Rectangle_408" data-name="Rectangle 408" width="0.931" height="6.072" transform="translate(139.814 99.101)" fill="#fff"/>
    <path id="Path_160" data-name="Path 160" d="M145.578,99.056h-.9L142,105.173h.942l.639-1.506h3.061l.634,1.506h.976Zm-1.665,3.806,1.194-2.791,1.207,2.791Z" fill="#fff"/>
    <path id="Path_161" data-name="Path 161" d="M110.985,85.441h-.9v.9h.9Zm-10.932,7.837h.874V85.441h-.874Zm-76.3-5.928h-.873V92.4H19.407V87.35H18.032a4.639,4.639,0,0,0-1.484.223,3.416,3.416,0,0,0-1.135.622,2.77,2.77,0,0,0-.727.945,2.738,2.738,0,0,0-.257,1.179,2.819,2.819,0,0,0,.3,1.332,2.669,2.669,0,0,0,.787.917,3.344,3.344,0,0,0,1.146.534,5.261,5.261,0,0,0,1.375.176h5.722ZM18.535,92.4h-.862a2.949,2.949,0,0,1-.923-.141,2.279,2.279,0,0,1-.754-.41,1.9,1.9,0,0,1-.507-.655,2.011,2.011,0,0,1-.186-.879,1.833,1.833,0,0,1,.2-.857,2.191,2.191,0,0,1,.535-.667,2.386,2.386,0,0,1,.76-.424,2.629,2.629,0,0,1,.873-.148h.862Zm2.792,2.807h.9v-.9h-.9ZM19.4,85.441h-.9v.9h.9Zm53.342,0h-.9v.9h.9Zm-49.89,9.77h.9v-.9h-.9Zm51.419-9.77h-.9v.9h.9Zm35.18,0h-.9v.9h.9Zm-91.58,0h-.9v.9h.9Zm59.308,9.77h.9v-.9h-.9Zm5.609-7.861h-.874V92.4h-3.3V87.35h-.874V92.4H74.275V87.35H72.9a4.649,4.649,0,0,0-1.485.223,3.441,3.441,0,0,0-1.136.622,2.792,2.792,0,0,0-.726.945,2.738,2.738,0,0,0-.256,1.179,2.807,2.807,0,0,0,.3,1.332,2.667,2.667,0,0,0,.786.917,3.361,3.361,0,0,0,1.146.534,5.252,5.252,0,0,0,1.376.176h9.892ZM73.4,92.4H72.54a2.965,2.965,0,0,1-.924-.141,2.279,2.279,0,0,1-.752-.41,1.9,1.9,0,0,1-.508-.655,2.011,2.011,0,0,1-.186-.879,1.821,1.821,0,0,1,.2-.857,2.191,2.191,0,0,1,.535-.667,2.4,2.4,0,0,1,.759-.424,2.635,2.635,0,0,1,.874-.148H73.4Zm5.31,2.807h.9v-.9h-.9Zm-49.325-7.1a2.338,2.338,0,0,0-.78-.574,2.6,2.6,0,0,0-1.054-.19h-.644v.873h.765a1.365,1.365,0,0,1,.6.136,1.4,1.4,0,0,1,.469.355,1.337,1.337,0,0,1,.257.5,2.593,2.593,0,0,1,.071.655V92.4H24.977v.874h4.968V89.839a3.245,3.245,0,0,0-.138-.961,1.966,1.966,0,0,0-.42-.764M96.636,92.4H92.924l1.528-3.657a7.825,7.825,0,0,0-.742-.574A6.579,6.579,0,0,0,92.9,87.7a4.692,4.692,0,0,0-.841-.316,3.194,3.194,0,0,0-.84-.115,3.237,3.237,0,0,0-.852.115,5.152,5.152,0,0,0-.846.311,5.321,5.321,0,0,0-.808.469,7.875,7.875,0,0,0-.726.579L89.527,92.4H86.275V87.35H85.4v6.114a4.446,4.446,0,0,1-.038.628,1.167,1.167,0,0,1-.131.414.549.549,0,0,1-.252.23,1.012,1.012,0,0,1-.409.07,1.556,1.556,0,0,1-.207-.011,1.757,1.757,0,0,1-.24-.054l-.23.841a2.675,2.675,0,0,0,.71.1,1.835,1.835,0,0,0,.791-.153,1.288,1.288,0,0,0,.519-.442,1.881,1.881,0,0,0,.278-.7,4.6,4.6,0,0,0,.083-.922v-.186H97.509V85.441h-.873Zm-6.191,0L89.08,89.052a3.5,3.5,0,0,1,1.031-.622,3.167,3.167,0,0,1,1.109-.2,3.08,3.08,0,0,1,1.167.234,3.5,3.5,0,0,1,.985.584L92.006,92.4Zm-8.539,2.807h.9v-.9h-.9Zm65.124-1.933h.873V85.441h-.873Zm-3.417-.874h-3a3.057,3.057,0,0,0,.273-1.288,3.209,3.209,0,0,0-.246-1.262,3.078,3.078,0,0,0-1.68-1.681,3.23,3.23,0,0,0-1.262-.245,2.981,2.981,0,0,0-1.223.252,3.105,3.105,0,0,0-1.648,1.692,3.214,3.214,0,0,0-.24,1.244,3.138,3.138,0,0,0,.07.672,3.769,3.769,0,0,0,.191.616h-2.708a3.073,3.073,0,0,0,.274-1.288,3.227,3.227,0,0,0-.246-1.262,3.09,3.09,0,0,0-1.682-1.681,3.207,3.207,0,0,0-1.261-.245A2.98,2.98,0,0,0,128,88.18a3.126,3.126,0,0,0-.988.681,3.258,3.258,0,0,0-.831,2.927,3.871,3.871,0,0,0,.192.616H123.6V85.441h-.874V92.4h-2.784V91.066a3.437,3.437,0,0,0-.131-.955,1.936,1.936,0,0,0-.414-.769,2.212,2.212,0,0,0-.764-.569,2.74,2.74,0,0,0-1.081-.185h-3.866l1.644-3.147h-.949L112.7,88.577a1.826,1.826,0,0,0,.137.492,1.54,1.54,0,0,0,.256.393h4.455a1.857,1.857,0,0,1,.714.125,1.265,1.265,0,0,1,.487.345,1.181,1.181,0,0,1,.251.5,2.865,2.865,0,0,1,.065.633V92.4H110.99V87.35h-1.376a4.647,4.647,0,0,0-1.484.223,3.436,3.436,0,0,0-1.137.622,2.78,2.78,0,0,0-.726.945,2.738,2.738,0,0,0-.256,1.179,2.808,2.808,0,0,0,.295,1.332,2.667,2.667,0,0,0,.786.917,3.361,3.361,0,0,0,1.146.534,5.258,5.258,0,0,0,1.376.176H126.94a3.161,3.161,0,0,0,1.011.726,3.019,3.019,0,0,0,1.271.267,3.244,3.244,0,0,0,1.3-.262,3.06,3.06,0,0,0,1.043-.731h3.843a3.157,3.157,0,0,0,1.01.726,3.02,3.02,0,0,0,1.272.267A3.262,3.262,0,0,0,139,94.009a3.075,3.075,0,0,0,1.042-.731h4.442V85.441h-.872Zm-33.5,0h-.862a2.954,2.954,0,0,1-.923-.141,2.274,2.274,0,0,1-.753-.41,1.907,1.907,0,0,1-.508-.655,2.024,2.024,0,0,1-.185-.879,1.809,1.809,0,0,1,.2-.857,2.159,2.159,0,0,1,.534-.667,2.4,2.4,0,0,1,.76-.424,2.629,2.629,0,0,1,.873-.148h.862Zm21.241-.387a2.254,2.254,0,0,1-.491.727,2.227,2.227,0,0,1-.731.474,2.419,2.419,0,0,1-.913.169,2.195,2.195,0,0,1-1.6-.672,2.261,2.261,0,0,1-.47-.725,2.338,2.338,0,0,1-.169-.884,2.372,2.372,0,0,1,.169-.89,2.3,2.3,0,0,1,.465-.732,2.211,2.211,0,0,1,.7-.5,2.15,2.15,0,0,1,.9-.185,2.393,2.393,0,0,1,.923.174,2.285,2.285,0,0,1,.732.48,2.2,2.2,0,0,1,.486.727,2.4,2.4,0,0,1,.174.923,2.289,2.289,0,0,1-.18.911m8.472,0a2.238,2.238,0,0,1-.491.727,2.211,2.211,0,0,1-.732.474,2.409,2.409,0,0,1-.911.169,2.195,2.195,0,0,1-1.6-.672,2.242,2.242,0,0,1-.469-.725,2.3,2.3,0,0,1-.169-.884,2.333,2.333,0,0,1,.169-.89,2.281,2.281,0,0,1,.465-.732,2.2,2.2,0,0,1,.7-.5,2.145,2.145,0,0,1,.9-.185,2.373,2.373,0,0,1,.921.174,2.253,2.253,0,0,1,.732.48,2.172,2.172,0,0,1,.487.727,2.369,2.369,0,0,1,.176.923,2.273,2.273,0,0,1-.182.911M59.751,92.4h-1.43a2.73,2.73,0,0,1-1.2-.218,1.609,1.609,0,0,1-.688-.655,3.83,3.83,0,0,0,.077-.819V87.895h-.874v2.958a1.752,1.752,0,0,1-.4,1.208,1.559,1.559,0,0,1-1.223.452,1.939,1.939,0,0,1-.7-.12,1.676,1.676,0,0,1-.546-.327,1.554,1.554,0,0,1-.361-.486,1.506,1.506,0,0,1-.141-.6v-3.09h-.874v3.024a1.726,1.726,0,0,1-.12.683,1.261,1.261,0,0,1-.327.459,1.287,1.287,0,0,1-.47.261,1.842,1.842,0,0,1-.556.082H48.221V87.895h-.874V92.4H42.762l1.53-3.657a8.242,8.242,0,0,0-.743-.574,6.8,6.8,0,0,0-.808-.469,4.75,4.75,0,0,0-.841-.316,3.2,3.2,0,0,0-.841-.115,3.243,3.243,0,0,0-.852.115,5.108,5.108,0,0,0-.845.311,5.33,5.33,0,0,0-.809.469,7.728,7.728,0,0,0-.725.579L39.366,92.4H36.344V87.35h-1.4a4.515,4.515,0,0,0-1.475.229,3.567,3.567,0,0,0-1.14.627,2.813,2.813,0,0,0-.737.95,2.747,2.747,0,0,0-.262,1.2,2.828,2.828,0,0,0,.289,1.326,2.55,2.55,0,0,0,.786.906,3.431,3.431,0,0,0,1.152.524,5.479,5.479,0,0,0,1.387.17h.524v.251a1.152,1.152,0,0,1-.393.983,1.809,1.809,0,0,1-1.1.294,3.155,3.155,0,0,1-.726-.076,4.277,4.277,0,0,1-.736-.262l-.274.841a8.178,8.178,0,0,0,.89.278,3.339,3.339,0,0,0,.78.093,2.467,2.467,0,0,0,1.856-.606,2.265,2.265,0,0,0,.581-1.632v-.164h13.57A2.31,2.31,0,0,0,51.044,93a2.246,2.246,0,0,0,.8-.731,2.236,2.236,0,0,0,.864.818,2.689,2.689,0,0,0,1.3.295,2.987,2.987,0,0,0,1.337-.273,1.874,1.874,0,0,0,.846-.84,2.291,2.291,0,0,0,.269.365,1.539,1.539,0,0,0,.408.322,2.337,2.337,0,0,0,.606.229,3.256,3.256,0,0,0,.628.077v.011h2.522V85.441h-.873Zm-24.282,0h-.884a3.043,3.043,0,0,1-.923-.136,2.331,2.331,0,0,1-.759-.4,1.832,1.832,0,0,1-.513-.644,1.969,1.969,0,0,1-.186-.873,1.857,1.857,0,0,1,.2-.863,2.193,2.193,0,0,1,.535-.672,2.511,2.511,0,0,1,.759-.43,2.6,2.6,0,0,1,.885-.153h.884Zm4.815,0L38.92,89.052a3.461,3.461,0,0,1,1.031-.622,3.161,3.161,0,0,1,1.108-.2,3.085,3.085,0,0,1,1.168.234,3.5,3.5,0,0,1,.984.584L41.845,92.4Zm22.884.874h.873V85.441h-.873Z" fill="#fff"/>
    <path id="Path_162" data-name="Path 162" d="M131.031,41.125c-10.7,0-18.483,8.078-18.483,17.94v.1c0,9.862,7.68,17.841,18.386,17.841s18.485-8.078,18.485-17.94v-.1c0-9.862-7.683-17.841-18.388-17.841m10.408,18.039c0,5.946-4.26,10.8-10.408,10.8s-10.506-4.956-10.506-10.9v-.1c0-5.948,4.264-10.8,10.409-10.8s10.5,4.957,10.5,10.9ZM26.874,69.819H40.1V76.41H14.43V70.364L25.976,60.9c4.312-3.567,6-5.45,6-8.325,0-2.924-1.934-4.509-4.66-4.509-2.674,0-4.509,1.486-7.087,4.657L14.876,48.41c3.42-4.659,6.739-7.186,12.933-7.186,7.188,0,11.946,4.212,11.946,10.705v.1c0,5.8-2.977,8.672-9.119,13.429l-7.581,5.852-1.473,1.137Zm83.706-4.262v.1C110.58,72.2,105.822,77,98.092,77a16.843,16.843,0,0,1-13.531-6L89.814,66c2.379,2.676,4.859,4.162,8.376,4.162,2.874,0,4.907-1.635,4.907-4.212v-.1c0-2.825-2.528-4.41-6.789-4.41H93.136l-1.191-4.859,11.129-11.194-4.46,2.869H86.6v-6.54h23.438v5.748l-8.769,8.374c4.707.794,9.316,3.271,9.316,9.714" fill="#fff"/>
    <path id="Path_163" data-name="Path 163" d="M73.4,60.681a6.368,6.368,0,0,0-1.2-.522,7.178,7.178,0,0,0-3.312-.242,7.957,7.957,0,0,0-1.431.37l-.144.051a7.9,7.9,0,0,0-.76.339c-.215.109-.43.229-.645.358a15.418,15.418,0,0,0-1.442.992,30.893,30.893,0,0,1-.151-7.712c0-.008.012-.012.019-.008,1.142.722.822,2.736.583,3.311a.011.011,0,0,0,.02.01,3.559,3.559,0,0,0,.437-4.02c-.007-.01.009-.021.017-.012a3.357,3.357,0,0,1,.517.525,3.139,3.139,0,0,1,.645,1.712,4.627,4.627,0,0,1,0,.773c0,.059-.006.117-.012.172,0,.008.008.01.012.009l.008,0a3.292,3.292,0,0,0-.008-3.012,3.788,3.788,0,0,0-.645-.886c-.081-.084-.166-.166-.259-.246a.012.012,0,0,1,.011-.021,2.384,2.384,0,0,1,.248.075,2.331,2.331,0,0,1,.645.341,2.692,2.692,0,0,1,.9,1.217,3.1,3.1,0,0,1,.209,1.112.011.011,0,0,0,.021,0,2.775,2.775,0,0,0-.23-2.276,2.686,2.686,0,0,0-.9-.873,2.9,2.9,0,0,0-.645-.289,1.872,1.872,0,0,0-.311-.069c-.012,0-.009-.021,0-.022.109-.01.21-.015.309-.017a3.129,3.129,0,0,1,.645.053,2.364,2.364,0,0,1,.9.358,1.9,1.9,0,0,1,.6.648.013.013,0,0,0,.023-.008,1.82,1.82,0,0,0-.627-1.22,2.314,2.314,0,0,0-.9-.475,2.553,2.553,0,0,0-.645-.094,2.07,2.07,0,0,0-.81.145c-.008,0-.017-.007-.011-.016a1.525,1.525,0,0,1,.821-.583,1.855,1.855,0,0,1,.645-.077,1.445,1.445,0,0,1,.532.126c.009.005.019-.009.011-.018a1.992,1.992,0,0,0-.543-.441,1.7,1.7,0,0,0-.645-.211,1.623,1.623,0,0,0-1.559.773.01.01,0,0,1-.018,0c-.074-.134-.148-.284-.215-.44a5.238,5.238,0,0,1-.355-1.178c0-.012-.016-.012-.017,0a5.224,5.224,0,0,1-.357,1.184c-.068.155-.138.3-.212.434a.011.011,0,0,1-.019,0,1.666,1.666,0,0,0-2.747-.121c-.01.009,0,.023.013.018a1.7,1.7,0,0,1,2,.534.011.011,0,0,1-.014.016,2.375,2.375,0,0,0-2.565.636,1.816,1.816,0,0,0-.418,1.008c0,.013.014.019.019.008a1.865,1.865,0,0,1,.4-.488,2.616,2.616,0,0,1,2.063-.554c.015,0,.018.02,0,.022a2.734,2.734,0,0,0-2.066,1.656,2.976,2.976,0,0,0-.024,1.851.012.012,0,0,0,.024,0v-.05a2.74,2.74,0,0,1,2-2.695.012.012,0,0,1,.01.021,3.361,3.361,0,0,0-.913,4.144.013.013,0,0,0,.024-.005A3.4,3.4,0,0,1,62.111,53.6a.011.011,0,0,1,.018.012,3.558,3.558,0,0,0,.434,4.02.013.013,0,0,0,.023-.01c-.242-.575-.561-2.589.583-3.311a.01.01,0,0,1,.015.008,30.992,30.992,0,0,1-.146,7.713,11.737,11.737,0,0,0-2.851-1.69c-.119-.044-.234-.084-.35-.122a7.513,7.513,0,0,0-2.692-.384,6.967,6.967,0,0,0-2.777.7c-.109.055-.2.1-.272.145a.027.027,0,0,0,.026.048c.083-.026.165-.049.246-.072a7.659,7.659,0,0,1,2.777-.274,8.253,8.253,0,0,1,2.692.727,14.184,14.184,0,0,1,3.2,2.088,35.2,35.2,0,0,1-3.2,2.744l-.1.057a.751.751,0,0,0-1.338.264.726.726,0,0,0,.148.648,1.071,1.071,0,0,0,1.291.188,17.807,17.807,0,0,0,3.546-2.958l.366-.331c.123.11.244.221.363.329.649.6,1.247,1.179,1.792,1.675.224.2.438.392.645.562a5.714,5.714,0,0,0,.9.626,1.169,1.169,0,0,0,1.431-.031c.024-.019.045-.038.068-.06a.83.83,0,0,0,.144-.648.712.712,0,0,0-.212-.367.737.737,0,0,0-.348-.189.751.751,0,0,0-.775.292,2.685,2.685,0,0,1-.308-.189,10.556,10.556,0,0,1-.9-.73c-.2-.178-.419-.373-.645-.581-.443-.4-.931-.849-1.447-1.3A18.113,18.113,0,0,1,65.9,62.1c.211-.142.427-.28.645-.411q.439-.264.9-.485a9.09,9.09,0,0,1,1.431-.549,7.564,7.564,0,0,1,3.312-.205,8.317,8.317,0,0,1,1.18.277.027.027,0,0,0,.024-.048" fill="#fff"/>
    <rect id="Rectangle_409" data-name="Rectangle 409" width="3.075" height="3.075" transform="translate(61.573 80.324) rotate(-45.013)" fill="#fff"/>
    <rect id="Rectangle_410" data-name="Rectangle 410" width="2.546" height="2.546" transform="translate(45.481 68.124) rotate(-71.992)" fill="#fff"/>
    <rect id="Rectangle_411" data-name="Rectangle 411" width="2.109" height="2.109" transform="translate(52.983 46.537) rotate(-81.002)" fill="#fff"/>
    <rect id="Rectangle_412" data-name="Rectangle 412" width="2.108" height="2.108" transform="translate(78.52 58.817) rotate(-45.019)" fill="#fff"/>
    <rect id="Rectangle_413" data-name="Rectangle 413" width="2.109" height="2.109" transform="translate(77.796 54.253) rotate(-63.01)" fill="#fff"/>
    <rect id="Rectangle_414" data-name="Rectangle 414" width="2.108" height="2.109" transform="matrix(0.988, -0.156, 0.156, 0.988, 52.984, 71.096)" fill="#fff"/>
    <rect id="Rectangle_415" data-name="Rectangle 415" width="2.108" height="2.109" transform="translate(72.101 44.783) rotate(-8.975)" fill="#fff"/>
    <rect id="Rectangle_416" data-name="Rectangle 416" width="2.11" height="2.108" transform="translate(57.304 73.822) rotate(-26.99)" fill="#fff"/>
    <rect id="Rectangle_417" data-name="Rectangle 417" width="2.108" height="2.108" transform="translate(62.256 42.555) rotate(-44.981)" fill="#fff"/>
    <rect id="Rectangle_418" data-name="Rectangle 418" width="1.746" height="1.746" transform="translate(60.317 45.043) rotate(-53.997)" fill="#fff"/>
    <rect id="Rectangle_419" data-name="Rectangle 419" width="1.746" height="1.745" transform="matrix(0.588, -0.809, 0.809, 0.588, 64.741, 72.976)" fill="#fff"/>
    <rect id="Rectangle_420" data-name="Rectangle 420" width="1.744" height="1.746" transform="matrix(0.951, -0.309, 0.309, 0.951, 50.049, 51.836)" fill="#fff"/>
    <rect id="Rectangle_421" data-name="Rectangle 421" width="1.745" height="1.746" transform="matrix(0.951, -0.31, 0.31, 0.951, 75.247, 64.676)" fill="#fff"/>
    <rect id="Rectangle_422" data-name="Rectangle 422" width="1.745" height="1.746" transform="translate(48.562 61.222) rotate(-54.023)" fill="#fff"/>
    <rect id="Rectangle_423" data-name="Rectangle 423" width="3.075" height="3.073" transform="translate(82.134 64.792) rotate(-27.007)" fill="#fff"/>
    <rect id="Rectangle_424" data-name="Rectangle 424" width="3.075" height="3.074" transform="matrix(0.988, -0.156, 0.156, 0.988, 49.349, 74.938)" fill="#fff"/>
    <rect id="Rectangle_425" data-name="Rectangle 425" width="3.075" height="3.074" transform="matrix(0.988, -0.156, 0.156, 0.988, 74.63, 40.14)" fill="#fff"/>
    <rect id="Rectangle_426" data-name="Rectangle 426" width="2.547" height="2.545" transform="matrix(0.588, -0.809, 0.809, 0.588, 43.499, 62.024)" fill="#fff"/>
    <rect id="Rectangle_427" data-name="Rectangle 427" width="2.108" height="2.109" transform="matrix(0.454, -0.891, 0.891, 0.454, 57.304, 43.812)" fill="#fff"/>
    <rect id="Rectangle_428" data-name="Rectangle 428" width="2.109" height="2.109" transform="translate(46.862 53.331) rotate(-26.978)" fill="#fff"/>
    <rect id="Rectangle_429" data-name="Rectangle 429" width="2.108" height="2.108" transform="matrix(0.707, -0.707, 0.707, 0.707, 62.257, 75.079)" fill="#fff"/>
    <rect id="Rectangle_430" data-name="Rectangle 430" width="1.746" height="1.745" transform="translate(75.248 52.959) rotate(-72.053)" fill="#fff"/>
    <rect id="Rectangle_431" data-name="Rectangle 431" width="1.747" height="1.747" transform="translate(52.876 67.942)" fill="#fff"/>
    <rect id="Rectangle_432" data-name="Rectangle 432" width="3.075" height="3.074" transform="translate(41.226 51.5) rotate(-27.007)" fill="#fff"/>
    <rect id="Rectangle_433" data-name="Rectangle 433" width="3.073" height="3.074" transform="translate(41.226 66.134) rotate(-62.993)" fill="#fff"/>
    <rect id="Rectangle_434" data-name="Rectangle 434" width="2.546" height="2.547" transform="matrix(0.309, -0.951, 0.951, 0.309, 53.654, 42.971)" fill="#fff"/>
    <rect id="Rectangle_435" data-name="Rectangle 435" width="2.546" height="2.547" transform="translate(70.634 76.298) rotate(-72.006)" fill="#fff"/>
    <rect id="Rectangle_436" data-name="Rectangle 436" width="2.546" height="2.546" transform="translate(78.807 66.49) rotate(-18.001)" fill="#fff"/>
    <rect id="Rectangle_437" data-name="Rectangle 437" width="2.546" height="2.546" transform="translate(80.44 61.459) rotate(-35.961)" fill="#fff"/>
    <rect id="Rectangle_438" data-name="Rectangle 438" width="2.546" height="2.547" transform="translate(78.806 51.145) rotate(-71.999)" fill="#fff"/>
    <rect id="Rectangle_439" data-name="Rectangle 439" width="2.547" height="2.546" transform="translate(75.699 44.32)" fill="#fff"/>
    <rect id="Rectangle_440" data-name="Rectangle 440" width="2.546" height="2.546" transform="translate(53.654 74.663) rotate(-17.98)" fill="#fff"/>
    <rect id="Rectangle_441" data-name="Rectangle 441" width="2.545" height="2.547" transform="matrix(0.588, -0.809, 0.809, 0.588, 64.896, 77.569)" fill="#fff"/>
    <rect id="Rectangle_442" data-name="Rectangle 442" width="2.109" height="2.108" transform="translate(46.865 64.303) rotate(-63.01)" fill="#fff"/>
    <rect id="Rectangle_443" data-name="Rectangle 443" width="1.747" height="1.747" transform="translate(52.876 47.944)" fill="#fff"/>
    <rect id="Rectangle_444" data-name="Rectangle 444" width="1.746" height="1.745" transform="matrix(0.809, -0.588, 0.588, 0.809, 48.562, 56.412)" fill="#fff"/>
    <rect id="Rectangle_445" data-name="Rectangle 445" width="1.746" height="1.746" transform="translate(69.068 45.656) rotate(-17.978)" fill="#fff"/>
    <rect id="Rectangle_446" data-name="Rectangle 446" width="1.745" height="1.746" transform="matrix(0.809, -0.587, 0.587, 0.809, 64.74, 44.656)" fill="#fff"/>
    <rect id="Rectangle_447" data-name="Rectangle 447" width="1.446" height="1.446" transform="translate(72.869 65.444) rotate(-9.026)" fill="#fff"/>
    <rect id="Rectangle_448" data-name="Rectangle 448" width="1.445" height="1.445" transform="translate(75.022 58.816) rotate(-45)" fill="#fff"/>
    <rect id="Rectangle_449" data-name="Rectangle 449" width="3.074" height="3.074" transform="translate(82.134 52.843) rotate(-62.993)" fill="#fff"/>
    <rect id="Rectangle_450" data-name="Rectangle 450" width="2.547" height="2.546" transform="translate(75.698 70.767)" fill="#fff"/>
    <rect id="Rectangle_451" data-name="Rectangle 451" width="2.546" height="2.546" transform="translate(45.481 49.51) rotate(-18.001)" fill="#fff"/>
    <rect id="Rectangle_452" data-name="Rectangle 452" width="2.546" height="2.545" transform="translate(70.635 41.336) rotate(-17.965)" fill="#fff"/>
    <rect id="Rectangle_453" data-name="Rectangle 453" width="2.545" height="2.547" transform="translate(59.044 40.628) rotate(-54.025)" fill="#fff"/>
    <rect id="Rectangle_454" data-name="Rectangle 454" width="2.109" height="2.109" transform="translate(77.796 63.381) rotate(-26.978)" fill="#fff"/>
    <rect id="Rectangle_455" data-name="Rectangle 455" width="2.108" height="2.108" transform="translate(45.996 58.817) rotate(-45.019)" fill="#fff"/>
    <rect id="Rectangle_456" data-name="Rectangle 456" width="1.746" height="1.745" transform="matrix(0.809, -0.588, 0.588, 0.809, 76.495, 60.837)" fill="#fff"/>
    <rect id="Rectangle_457" data-name="Rectangle 457" width="1.745" height="1.746" transform="translate(56.228 70.856) rotate(-17.978)" fill="#fff"/>
    <rect id="Rectangle_458" data-name="Rectangle 458" width="1.446" height="1.446" transform="matrix(0.707, -0.707, 0.707, 0.707, 62.726, 71.112)" fill="#fff"/>
    <rect id="Rectangle_459" data-name="Rectangle 459" width="1.446" height="1.446" transform="translate(55.693 49.471) rotate(-81.013)" fill="#fff"/>
    <rect id="Rectangle_460" data-name="Rectangle 460" width="1.446" height="1.446" transform="translate(51.081 62.933) rotate(-62.992)" fill="#fff"/>
    <rect id="Rectangle_461" data-name="Rectangle 461" width="2.546" height="2.546" transform="translate(49.252 44.32)" fill="#fff"/>
    <rect id="Rectangle_462" data-name="Rectangle 462" width="2.547" height="2.545" transform="matrix(0.809, -0.587, 0.587, 0.809, 64.896, 40.064)" fill="#fff"/>
    <rect id="Rectangle_463" data-name="Rectangle 463" width="2.108" height="2.109" transform="translate(67.355 74.744) rotate(-63.01)" fill="#fff"/>
    <rect id="Rectangle_464" data-name="Rectangle 464" width="2.109" height="2.108" transform="translate(49.386 69.252) rotate(-80.998)" fill="#fff"/>
    <rect id="Rectangle_465" data-name="Rectangle 465" width="2.109" height="2.108" transform="translate(75.699 50.135) rotate(-80.998)" fill="#fff"/>
    <rect id="Rectangle_466" data-name="Rectangle 466" width="1.747" height="1.747" transform="translate(72.874 67.943)" fill="#fff"/>
    <rect id="Rectangle_467" data-name="Rectangle 467" width="1.745" height="1.746" transform="translate(76.496 56.797) rotate(-54.023)" fill="#fff"/>
    <rect id="Rectangle_468" data-name="Rectangle 468" width="1.746" height="1.747" transform="translate(60.316 72.59) rotate(-35.984)" fill="#fff"/>
    <rect id="Rectangle_469" data-name="Rectangle 469" width="1.446" height="1.447" transform="matrix(0.454, -0.891, 0.891, 0.454, 58.976, 47.438)" fill="#fff"/>
    <rect id="Rectangle_470" data-name="Rectangle 470" width="1.447" height="1.446" transform="matrix(0.454, -0.891, 0.891, 0.454, 66.576, 70.827)" fill="#fff"/>
    <rect id="Rectangle_471" data-name="Rectangle 471" width="1.446" height="1.446" transform="translate(70.148 69.367) rotate(-81.013)" fill="#fff"/>
    <rect id="Rectangle_472" data-name="Rectangle 472" width="1.445" height="1.446" transform="translate(51.08 54.701) rotate(-27.044)" fill="#fff"/>
    <rect id="Rectangle_473" data-name="Rectangle 473" width="1.447" height="1.446" transform="translate(74.47 62.301) rotate(-27.008)" fill="#fff"/>
    <rect id="Rectangle_474" data-name="Rectangle 474" width="1.446" height="1.446" transform="translate(52.973 66.645) rotate(-81.007)" fill="#fff"/>
    <rect id="Rectangle_475" data-name="Rectangle 475" width="1.446" height="1.446" transform="translate(70.148 48.269) rotate(-9.026)" fill="#fff"/>
    <rect id="Rectangle_476" data-name="Rectangle 476" width="1.446" height="1.446" transform="translate(58.976 70.194) rotate(-26.972)" fill="#fff"/>
    <rect id="Rectangle_477" data-name="Rectangle 477" width="3.074" height="3.075" transform="translate(49.347 42.696) rotate(-81.013)" fill="#fff"/>
    <rect id="Rectangle_478" data-name="Rectangle 478" width="3.074" height="3.075" transform="translate(74.63 77.494) rotate(-80.994)" fill="#fff"/>
    <rect id="Rectangle_479" data-name="Rectangle 479" width="3.075" height="3.075" transform="matrix(0.707, -0.707, 0.707, 0.707, 61.573, 37.311)" fill="#fff"/>
    <rect id="Rectangle_480" data-name="Rectangle 480" width="2.545" height="2.546" transform="matrix(0.809, -0.588, 0.588, 0.809, 43.499, 55.609)" fill="#fff"/>
    <rect id="Rectangle_481" data-name="Rectangle 481" width="2.546" height="2.545" transform="matrix(0.587, -0.809, 0.809, 0.587, 80.441, 56.174)" fill="#fff"/>
    <rect id="Rectangle_482" data-name="Rectangle 482" width="2.546" height="2.546" transform="translate(49.252 70.768)" fill="#fff"/>
    <rect id="Rectangle_483" data-name="Rectangle 483" width="2.547" height="2.545" transform="translate(59.044 77.006) rotate(-35.988)" fill="#fff"/>
    <rect id="Rectangle_484" data-name="Rectangle 484" width="2.109" height="2.109" transform="translate(72.1 72.85) rotate(-81.002)" fill="#fff"/>
    <rect id="Rectangle_485" data-name="Rectangle 485" width="2.108" height="2.109" transform="translate(49.385 48.382) rotate(-9.002)" fill="#fff"/>
    <rect id="Rectangle_486" data-name="Rectangle 486" width="2.107" height="2.109" transform="matrix(0.988, -0.157, 0.157, 0.988, 75.698, 67.499)" fill="#fff"/>
    <rect id="Rectangle_487" data-name="Rectangle 487" width="2.109" height="2.108" transform="translate(67.356 42.89) rotate(-26.966)" fill="#fff"/>
    <rect id="Rectangle_488" data-name="Rectangle 488" width="1.747" height="1.746" transform="translate(56.228 46.778) rotate(-71.991)" fill="#fff"/>
    <rect id="Rectangle_489" data-name="Rectangle 489" width="1.746" height="1.745" transform="translate(69.069 71.978) rotate(-72.012)" fill="#fff"/>
    <rect id="Rectangle_490" data-name="Rectangle 490" width="1.746" height="1.745" transform="translate(50.049 65.798) rotate(-72.053)" fill="#fff"/>
    <rect id="Rectangle_491" data-name="Rectangle 491" width="1.747" height="1.747" transform="translate(72.874 47.944)" fill="#fff"/>
    <rect id="Rectangle_492" data-name="Rectangle 492" width="1.446" height="1.446" transform="translate(62.726 46.52) rotate(-45)" fill="#fff"/>
    <rect id="Rectangle_493" data-name="Rectangle 493" width="1.447" height="1.446" transform="matrix(0.988, -0.156, 0.156, 0.988, 52.973, 50.988)" fill="#fff"/>
    <rect id="Rectangle_494" data-name="Rectangle 494" width="1.445" height="1.445" transform="translate(50.429 58.816) rotate(-45)" fill="#fff"/>
    <rect id="Rectangle_495" data-name="Rectangle 495" width="1.446" height="1.446" transform="translate(74.47 55.333) rotate(-63.027)" fill="#fff"/>
    <rect id="Rectangle_496" data-name="Rectangle 496" width="1.447" height="1.446" transform="translate(72.868 52.19) rotate(-80.974)" fill="#fff"/>
    <rect id="Rectangle_497" data-name="Rectangle 497" width="1.446" height="1.446" transform="translate(55.693 68.165) rotate(-9.026)" fill="#fff"/>
    <rect id="Rectangle_498" data-name="Rectangle 498" width="1.446" height="1.446" transform="translate(66.575 46.805) rotate(-26.972)" fill="#fff"/>
  </g>
</svg>
