<svg id="world" xmlns="http://www.w3.org/2000/svg" width="29.835" height="29.835" viewBox="0 0 29.835 29.835">
  <path id="world-2" data-name="world" d="M14.917,0A14.917,14.917,0,1,0,29.835,14.917,14.95,14.95,0,0,0,14.917,0ZM10.492,2.514A14.755,14.755,0,0,0,8.227,6.993H4.407a13.229,13.229,0,0,1,6.085-4.479ZM3.29,8.74H7.739a26.768,26.768,0,0,0-.675,5.3H1.778A13.077,13.077,0,0,1,3.29,8.74ZM1.778,15.791H7.064a26.788,26.788,0,0,0,.661,5.244H3.259a13.072,13.072,0,0,1-1.481-5.244Zm2.584,6.993H8.208a14.816,14.816,0,0,0,2.284,4.537A13.23,13.23,0,0,1,4.362,22.784Zm9.681,5.153c-1.959-.664-3.292-3.2-3.991-5.153h3.991Zm0-6.9H9.522a24.684,24.684,0,0,1-.709-5.244h5.23Zm0-6.993H8.813a24.634,24.634,0,0,1,.724-5.3h4.506Zm0-7.051h-3.97c.7-1.93,2.026-4.436,3.97-5.095Zm11.385,0h-3.82a14.757,14.757,0,0,0-2.265-4.479A13.229,13.229,0,0,1,25.428,6.993ZM15.791,1.9c1.944.659,3.271,3.165,3.97,5.095h-3.97Zm0,6.843H20.3a24.638,24.638,0,0,1,.724,5.3h-5.23Zm0,7.05h5.23a24.684,24.684,0,0,1-.709,5.245H15.791Zm0,12.146V22.783h3.991C19.084,24.733,17.751,27.273,15.791,27.937Zm3.551-.616a14.812,14.812,0,0,0,2.284-4.537h3.845A13.227,13.227,0,0,1,19.343,27.321Zm7.233-6.285H22.109a26.788,26.788,0,0,0,.661-5.245h5.286a13.073,13.073,0,0,1-1.481,5.245Zm1.481-6.993H22.77a26.757,26.757,0,0,0-.675-5.3h4.449a13.072,13.072,0,0,1,1.512,5.3Z" fill="#fff"/>
</svg>
