<svg id="XMLID_822_" xmlns="http://www.w3.org/2000/svg" width="50.312" height="35.408" viewBox="0 0 50.312 35.408">
  <path id="XMLID_823_" d="M48.351,48.956c-1.816-2.159-5.169-3.039-11.573-3.039H13.533c-6.55,0-9.96.937-11.769,3.236C0,51.394,0,54.7,0,59.266v8.71C0,76.83,2.093,81.325,13.533,81.325H36.778c5.553,0,8.63-.777,10.621-2.682,2.042-1.954,2.913-5.144,2.913-10.666v-8.71C50.312,54.446,50.176,51.125,48.351,48.956ZM32.3,64.823,21.745,70.34A1.623,1.623,0,0,1,19.37,68.9v-11a1.623,1.623,0,0,1,2.371-1.44L32.3,61.945a1.623,1.623,0,0,1,0,2.879Z" transform="translate(0 -45.917)" fill="#fff"/>
</svg>
